<?xml version="1.0" encoding="UTF-8" standalone="no"?>
<!-- Generator: Adobe Illustrator 18.0.0, SVG Export Plug-In . SVG Version: 6.00 Build 0)  -->

<svg
   xmlns:dc="http://purl.org/dc/elements/1.1/"
   xmlns:cc="http://creativecommons.org/ns#"
   xmlns:rdf="http://www.w3.org/1999/02/22-rdf-syntax-ns#"
   xmlns:svg="http://www.w3.org/2000/svg"
   xmlns="http://www.w3.org/2000/svg"
   xmlns:sodipodi="http://sodipodi.sourceforge.net/DTD/sodipodi-0.dtd"
   xmlns:inkscape="http://www.inkscape.org/namespaces/inkscape"
   version="1.1"
   id="Capa_1"
   x="0px"
   y="0px"
   viewBox="0 0 56 56"
   style="enable-background:new 0 0 56 56;"
   xml:space="preserve"
   sodipodi:docname="58aae02e4cb75faf155e23db_javascript.svg"
   inkscape:version="0.92.0 r15299"><metadata
     id="metadata61"><rdf:RDF><cc:Work
         rdf:about=""><dc:format>image/svg+xml</dc:format><dc:type
           rdf:resource="http://purl.org/dc/dcmitype/StillImage" /></cc:Work></rdf:RDF></metadata><defs
     id="defs59" /><sodipodi:namedview
     pagecolor="#ffffff"
     bordercolor="#666666"
     borderopacity="1"
     objecttolerance="10"
     gridtolerance="10"
     guidetolerance="10"
     inkscape:pageopacity="0"
     inkscape:pageshadow="2"
     inkscape:window-width="1433"
     inkscape:window-height="922"
     id="namedview57"
     showgrid="false"
     inkscape:zoom="5.9599"
     inkscape:cx="28"
     inkscape:cy="28"
     inkscape:window-x="0"
     inkscape:window-y="0"
     inkscape:window-maximized="0"
     inkscape:current-layer="text4540" /><g
     id="g24"><path
       style="fill:#E9E9E0;"
       d="M36.985,0H7.963C7.155,0,6.5,0.655,6.5,1.926V55c0,0.345,0.655,1,1.463,1h40.074   c0.808,0,1.463-0.655,1.463-1V12.978c0-0.696-0.093-0.92-0.257-1.085L37.607,0.257C37.442,0.093,37.218,0,36.985,0z"
       id="path2" /><polygon
       style="fill:#D9D7CA;"
       points="37.5,0.151 37.5,12 49.349,12  "
       id="polygon4" /><path
       style="fill:#ee614b;fill-opacity:1"
       d="M48.037,56H7.963C7.155,56,6.5,55.345,6.5,54.537V39h43v15.537C49.5,55.345,48.845,56,48.037,56z"
       id="path6" /><g
       id="g12"
       transform="translate(-5.220339,-0.47457627)"><path
         style="fill:#ffffff"
         d="m 26.021,42.719 v 7.848 c 0,0.474 -0.087,0.873 -0.26,1.196 -0.174,0.323 -0.406,0.583 -0.697,0.779 -0.292,0.196 -0.627,0.333 -1.005,0.41 -0.378,0.077 -0.769,0.116 -1.169,0.116 -0.201,0 -0.436,-0.021 -0.704,-0.062 -0.268,-0.041 -0.547,-0.104 -0.834,-0.191 -0.287,-0.087 -0.563,-0.185 -0.827,-0.294 -0.265,-0.109 -0.488,-0.232 -0.67,-0.369 l 0.697,-1.107 c 0.091,0.063 0.221,0.13 0.39,0.198 0.169,0.068 0.353,0.132 0.554,0.191 0.2,0.06 0.41,0.111 0.629,0.157 0.219,0.046 0.424,0.068 0.615,0.068 0.482,0 0.868,-0.094 1.155,-0.28 0.287,-0.186 0.439,-0.504 0.458,-0.95 v -7.711 h 1.668 z"
         id="path8"
         inkscape:connector-curvature="0" /><path
         style="fill:#ffffff"
         d="m 34.184,50.238 c 0,0.364 -0.075,0.718 -0.226,1.06 -0.151,0.342 -0.362,0.643 -0.636,0.902 -0.274,0.259 -0.611,0.467 -1.012,0.622 -0.401,0.155 -0.857,0.232 -1.367,0.232 -0.219,0 -0.444,-0.012 -0.677,-0.034 -0.233,-0.022 -0.468,-0.062 -0.704,-0.116 -0.237,-0.055 -0.463,-0.13 -0.677,-0.226 -0.214,-0.096 -0.399,-0.212 -0.554,-0.349 l 0.287,-1.176 c 0.127,0.073 0.289,0.144 0.485,0.212 0.196,0.068 0.398,0.132 0.608,0.191 0.209,0.06 0.419,0.107 0.629,0.144 0.209,0.036 0.405,0.055 0.588,0.055 0.556,0 0.982,-0.13 1.278,-0.39 0.296,-0.26 0.444,-0.645 0.444,-1.155 0,-0.31 -0.105,-0.574 -0.314,-0.793 C 32.126,49.198 31.864,49 31.55,48.822 31.236,48.644 30.896,48.467 30.531,48.289 30.166,48.111 29.824,47.901 29.506,47.66 c -0.319,-0.241 -0.584,-0.526 -0.793,-0.854 -0.21,-0.328 -0.314,-0.738 -0.314,-1.23 0,-0.446 0.082,-0.843 0.246,-1.189 0.164,-0.346 0.385,-0.641 0.663,-0.882 0.278,-0.241 0.602,-0.426 0.971,-0.554 0.369,-0.128 0.759,-0.191 1.169,-0.191 0.419,0 0.843,0.039 1.271,0.116 0.428,0.077 0.774,0.203 1.039,0.376 -0.055,0.118 -0.119,0.248 -0.191,0.39 -0.073,0.142 -0.142,0.273 -0.205,0.396 -0.064,0.123 -0.119,0.226 -0.164,0.308 -0.046,0.082 -0.073,0.128 -0.082,0.137 C 33.061,44.456 33,44.42 32.931,44.374 32.862,44.328 32.764,44.283 32.637,44.237 32.509,44.191 32.34,44.16 32.131,44.141 c -0.21,-0.019 -0.479,-0.014 -0.807,0.014 -0.183,0.019 -0.355,0.07 -0.52,0.157 -0.165,0.087 -0.311,0.193 -0.438,0.321 -0.128,0.128 -0.229,0.271 -0.301,0.431 -0.073,0.159 -0.109,0.313 -0.109,0.458 0,0.364 0.104,0.658 0.314,0.882 0.209,0.224 0.469,0.419 0.779,0.588 0.31,0.169 0.646,0.333 1.012,0.492 0.364,0.159 0.704,0.354 1.019,0.581 0.315,0.227 0.576,0.513 0.786,0.854 0.212,0.342 0.318,0.781 0.318,1.319 z"
         id="path10"
         inkscape:connector-curvature="0" /></g><g
       id="g22"
       style="fill:#ee614b;fill-opacity:1"><path
         style="fill:#ee614b;fill-opacity:1"
         d="M19.5,19v-4c0-0.551,0.448-1,1-1c0.553,0,1-0.448,1-1s-0.447-1-1-1c-1.654,0-3,1.346-3,3v4    c0,1.103-0.897,2-2,2c-0.553,0-1,0.448-1,1s0.447,1,1,1c1.103,0,2,0.897,2,2v4c0,1.654,1.346,3,3,3c0.553,0,1-0.448,1-1    s-0.447-1-1-1c-0.552,0-1-0.449-1-1v-4c0-1.2-0.542-2.266-1.382-3C18.958,21.266,19.5,20.2,19.5,19z"
         id="path14" /><circle
         style="fill:#ee614b;fill-opacity:1"
         cx="27.5"
         cy="18.5"
         r="1.5"
         id="circle16" /><path
         style="fill:#ee614b;fill-opacity:1"
         d="M39.5,21c-1.103,0-2-0.897-2-2v-4c0-1.654-1.346-3-3-3c-0.553,0-1,0.448-1,1s0.447,1,1,1    c0.552,0,1,0.449,1,1v4c0,1.2,0.542,2.266,1.382,3c-0.84,0.734-1.382,1.8-1.382,3v4c0,0.551-0.448,1-1,1c-0.553,0-1,0.448-1,1    s0.447,1,1,1c1.654,0,3-1.346,3-3v-4c0-1.103,0.897-2,2-2c0.553,0,1-0.448,1-1S40.053,21,39.5,21z"
         id="path18" /><path
         style="fill:#ee614b;fill-opacity:1"
         d="M27.5,24c-0.553,0-1,0.448-1,1v3c0,0.552,0.447,1,1,1s1-0.448,1-1v-3    C28.5,24.448,28.053,24,27.5,24z"
         id="path20" /></g><g
       aria-label="+"
       style="font-style:normal;font-weight:normal;font-size:11.82689857px;line-height:15.83959675px;font-family:sans-serif;letter-spacing:0px;word-spacing:0px;fill:#ffffff;fill-opacity:1;stroke:none;stroke-width:0.63358384"
       id="text4540"><path
         d="m 39.954269,47.809341 h -3.147295 v 3.147294 h -0.958625 v -3.147294 h -3.147295 v -0.923977 h 3.147295 v -3.147295 h 0.958625 v 3.147295 h 3.147295 z"
         style="stroke-width:0.63358384"
         id="path4542" /></g></g><g
     id="g26" /><g
     id="g28" /><g
     id="g30" /><g
     id="g32" /><g
     id="g34" /><g
     id="g36" /><g
     id="g38" /><g
     id="g40" /><g
     id="g42" /><g
     id="g44" /><g
     id="g46" /><g
     id="g48" /><g
     id="g50" /><g
     id="g52" /><g
     id="g54" /></svg>