<?xml version="1.0" encoding="UTF-8" standalone="no"?>
<!-- Generator: Adobe Illustrator 18.0.0, SVG Export Plug-In . SVG Version: 6.00 Build 0)  -->

<svg
   xmlns:dc="http://purl.org/dc/elements/1.1/"
   xmlns:cc="http://creativecommons.org/ns#"
   xmlns:rdf="http://www.w3.org/1999/02/22-rdf-syntax-ns#"
   xmlns:svg="http://www.w3.org/2000/svg"
   xmlns="http://www.w3.org/2000/svg"
   xmlns:sodipodi="http://sodipodi.sourceforge.net/DTD/sodipodi-0.dtd"
   xmlns:inkscape="http://www.inkscape.org/namespaces/inkscape"
   version="1.1"
   id="Capa_1"
   x="0px"
   y="0px"
   viewBox="0 0 58 58"
   style="enable-background:new 0 0 58 58;"
   xml:space="preserve"
   sodipodi:docname="calendar.svg"
   inkscape:version="0.92.0 r15299"><metadata
     id="metadata59"><rdf:RDF><cc:Work
         rdf:about=""><dc:format>image/svg+xml</dc:format><dc:type
           rdf:resource="http://purl.org/dc/dcmitype/StillImage" /></cc:Work></rdf:RDF></metadata><defs
     id="defs57" /><sodipodi:namedview
     pagecolor="#ffffff"
     bordercolor="#666666"
     borderopacity="1"
     objecttolerance="10"
     gridtolerance="10"
     guidetolerance="10"
     inkscape:pageopacity="0"
     inkscape:pageshadow="2"
     inkscape:window-width="974"
     inkscape:window-height="610"
     id="namedview55"
     showgrid="false"
     inkscape:zoom="4.0689655"
     inkscape:cx="29"
     inkscape:cy="29"
     inkscape:window-x="430"
     inkscape:window-y="213"
     inkscape:window-maximized="0"
     inkscape:current-layer="g22" /><g
     id="g22"><g
       id="g14"><polygon
         style="fill:#c6d6ff;fill-opacity:1"
         points="46.5,4 46.5,8 39.5,8 39.5,4 15.5,4 15.5,8 8.5,8 8.5,4 0.5,4 0.5,15 54.5,15 54.5,4   "
         id="polygon2" /><polygon
         style="fill:#EFEBDE;"
         points="8.5,15 0.5,15 0.5,58 54.5,58 54.5,15 46.5,15 39.5,15 15.5,15   "
         id="polygon4" /><path
         style="fill:#D5D0BB;"
         d="M37.5,22h-2h-7h-2h-7h-2h-9v9v2v7v2v9h9h2h7h2h7h2h9v-9v-2v-7v-2v-9H37.5z M28.5,24h7v7h-7V24z     M35.5,40h-7v-7h7V40z M19.5,33h7v7h-7V33z M19.5,24h7v7h-7V24z M10.5,24h7v7h-7V24z M10.5,33h7v7h-7V33z M17.5,49h-7v-7h7V49z     M26.5,49h-7v-7h7V49z M35.5,49h-7v-7h7V49z M44.5,49h-7v-7h7V49z M44.5,40h-7v-7h7V40z M37.5,31v-7h7v7H37.5z"
         id="path6" /><rect
         x="8.5"
         style="fill:#36495E;"
         width="7"
         height="8"
         id="rect8" /><rect
         x="39.5"
         style="fill:#36495E;"
         width="7"
         height="8"
         id="rect10" /><rect
         x="19.5"
         y="33"
         style="fill:#7F6E5D;"
         width="7"
         height="7"
         id="rect12" /></g><g
       id="g20"><circle
         style="fill:#c6d6ff;fill-opacity:1"
         cx="45.5"
         cy="45"
         r="12"
         id="circle16" /><path
         style="fill:#51628d;fill-opacity:1"
         d="M52.071,39.179c-0.455-0.316-1.077-0.204-1.392,0.25l-5.596,8.04l-3.949-3.242    c-0.426-0.351-1.057-0.288-1.407,0.139c-0.351,0.427-0.289,1.057,0.139,1.407l4.786,3.929c0.18,0.147,0.404,0.227,0.634,0.227    c0.045,0,0.091-0.003,0.137-0.009c0.276-0.039,0.524-0.19,0.684-0.419l6.214-8.929C52.636,40.118,52.524,39.495,52.071,39.179z"
         id="path18" /></g></g><g
     id="g24" /><g
     id="g26" /><g
     id="g28" /><g
     id="g30" /><g
     id="g32" /><g
     id="g34" /><g
     id="g36" /><g
     id="g38" /><g
     id="g40" /><g
     id="g42" /><g
     id="g44" /><g
     id="g46" /><g
     id="g48" /><g
     id="g50" /><g
     id="g52" /></svg>