<?xml version="1.0" encoding="utf-8"?>
<!-- Generator: Adobe Illustrator 17.0.0, SVG Export Plug-In . SVG Version: 6.00 Build 0)  -->
<!DOCTYPE svg PUBLIC "-//W3C//DTD SVG 1.1//EN" "http://www.w3.org/Graphics/SVG/1.1/DTD/svg11.dtd">
<svg version="1.1" id="Layer_1" xmlns="http://www.w3.org/2000/svg" xmlns:xlink="http://www.w3.org/1999/xlink" x="0px" y="0px"
	 width="258px" height="321px" viewBox="0 0 258 321" enable-background="new 0 0 258 321" xml:space="preserve">
<path fill="#3D6889" d="M250.137,62.629c10.485,10.485,10.485,27.545,0,38.03L125.382,225.414
	c-3.474,3.474-8.038,5.211-12.601,5.211c-4.563,0-9.127-1.737-12.601-5.211l-60.64-60.64c-10.485-10.485-10.485-27.545,0-38.03
	s27.545-10.485,38.03,0l35.211,35.204l99.326-99.318c5.246-5.239,12.125-7.865,19.018-7.865
	C238.004,54.764,244.897,57.39,250.137,62.629z M240.389,90.912c5.108-5.115,5.108-13.428,0-18.536
	c-5.108-5.108-13.428-5.108-18.536,0L121.522,172.708c-2.337,2.337-5.439,3.619-8.741,3.619s-6.404-1.282-8.734-3.619
	l-36.224-36.217c-2.557-2.557-5.908-3.833-9.265-3.833s-6.714,1.275-9.271,3.833c-5.108,5.108-5.108,13.421,0,18.536l60.64,60.64
	c1.572,1.572,4.136,1.572,5.708,0L240.389,90.912z"/>
<path fill="#73D0F4" d="M240.389,72.376c5.108,5.108,5.108,13.421,0,18.536L115.635,215.667c-1.572,1.572-4.136,1.572-5.708,0
	l-60.64-60.64c-5.108-5.115-5.108-13.428,0-18.536c2.557-2.557,5.914-3.833,9.271-3.833s6.707,1.275,9.265,3.833l36.224,36.217
	c2.33,2.337,5.432,3.619,8.734,3.619s6.404-1.282,8.741-3.619L221.853,72.376C226.961,67.268,235.281,67.268,240.389,72.376z"/>
<path fill="#3D6889" d="M226.616,152.359c0.193,2.675,0.29,5.411,0.29,8.141c0,62.556-50.893,113.45-113.45,113.45
	S0,223.057,0,160.5S50.9,47.051,113.456,47.051c24.775,0,48.308,7.845,68.05,22.679c3.047,2.289,3.66,6.611,1.372,9.651
	c-2.289,3.047-6.611,3.66-9.651,1.372c-17.343-13.028-38.01-19.915-59.772-19.915c-54.959,0-99.669,44.71-99.669,99.663
	s44.71,99.663,99.67,99.663c54.953,0,99.663-44.71,99.663-99.663c0-2.399-0.09-4.805-0.255-7.148
	c-0.276-3.798,2.585-7.1,6.376-7.376C223.046,145.707,226.341,148.561,226.616,152.359z"/>
</svg>
