<?xml version="1.0" encoding="UTF-8" standalone="no"?>
<!-- Generator: Adobe Illustrator 18.1.1, SVG Export Plug-In . SVG Version: 6.00 Build 0)  -->

<svg
   xmlns:dc="http://purl.org/dc/elements/1.1/"
   xmlns:cc="http://creativecommons.org/ns#"
   xmlns:rdf="http://www.w3.org/1999/02/22-rdf-syntax-ns#"
   xmlns:svg="http://www.w3.org/2000/svg"
   xmlns="http://www.w3.org/2000/svg"
   xmlns:sodipodi="http://sodipodi.sourceforge.net/DTD/sodipodi-0.dtd"
   xmlns:inkscape="http://www.inkscape.org/namespaces/inkscape"
   version="1.1"
   id="Capa_1"
   x="0px"
   y="0px"
   viewBox="0 0 27.269 30.466428"
   xml:space="preserve"
   sodipodi:docname="css.svg"
   inkscape:version="0.92.0 r15299"
   width="27.268999"
   height="30.466427"><metadata
     id="metadata71"><rdf:RDF><cc:Work
         rdf:about=""><dc:format>image/svg+xml</dc:format><dc:type
           rdf:resource="http://purl.org/dc/dcmitype/StillImage" /><dc:title /></cc:Work></rdf:RDF></metadata><defs
     id="defs69" /><sodipodi:namedview
     pagecolor="#ffffff"
     bordercolor="#666666"
     borderopacity="1"
     objecttolerance="10"
     gridtolerance="10"
     guidetolerance="10"
     inkscape:pageopacity="0"
     inkscape:pageshadow="2"
     inkscape:window-width="1198"
     inkscape:window-height="792"
     id="namedview67"
     showgrid="false"
     inkscape:zoom="8.6545164"
     inkscape:cx="-18.256364"
     inkscape:cy="11.688496"
     inkscape:window-x="259"
     inkscape:window-y="108"
     inkscape:window-maximized="0"
     inkscape:current-layer="text4554"
     fit-margin-top="0.7"
     fit-margin-left="0"
     fit-margin-right="0"
     fit-margin-bottom="0" /><g
     id="g34"
     transform="translate(0,5.1434275)"><path
       d="M 25.323,1.946 H 1.949 C 0.869,1.946 0,2.816 0,3.895 v 19.479 c 0,1.075 0.869,1.949 1.949,1.949 h 23.375 c 1.071,0 1.945,-0.874 1.945,-1.949 V 3.895 c 0,-1.079 -0.874,-1.949 -1.946,-1.949 z M 9.314,3.412 c 0.535,0 0.973,0.431 0.973,0.973 0,0.536 -0.438,0.972 -0.973,0.972 C 8.775,5.357 8.338,4.921 8.338,4.385 8.339,3.842 8.776,3.412 9.314,3.412 Z m -2.982,0 c 0.537,0 0.974,0.431 0.974,0.973 0,0.536 -0.437,0.972 -0.974,0.972 C 5.793,5.357 5.357,4.921 5.357,4.385 5.356,3.842 5.792,3.412 6.332,3.412 Z m -2.924,0 c 0.539,0 0.975,0.431 0.975,0.973 0,0.536 -0.436,0.972 -0.975,0.972 -0.537,0 -0.971,-0.436 -0.971,-0.972 0,-0.543 0.434,-0.973 0.971,-0.973 z M 25.323,23.375 H 1.949 V 6.838 h 23.375 z m 0,-18.484 H 11.687 V 3.914 h 13.636 z"
       id="path2"
       style="fill:#aac1da;fill-opacity:1"
       inkscape:connector-curvature="0" /><g
       id="g4" /><g
       id="g6" /><g
       id="g8" /><g
       id="g10" /><g
       id="g12" /><g
       id="g14" /><g
       id="g16" /><g
       id="g18" /><g
       id="g20" /><g
       id="g22" /><g
       id="g24" /><g
       id="g26" /><g
       id="g28" /><g
       id="g30" /><g
       id="g32" /><g
       aria-label="{}"
       style="font-style:normal;font-variant:normal;font-weight:normal;font-stretch:normal;font-size:13.14851379px;line-height:17.60961533px;font-family:'Arial Rounded MT Bold';-inkscape-font-specification:'Arial Rounded MT Bold, ';letter-spacing:0px;word-spacing:0px;fill:#375b84;fill-opacity:1;stroke:none;stroke-width:0.70438462"
       id="text4550"><path
         d="m 10.948078,14.764888 q 0.455832,0.282488 0.712639,0.635597 0.256807,0.34669 0.35953,0.892404 0.102723,0.539295 0.102723,1.386758 0,0.635597 0.02568,0.937345 0.0321,0.301748 0.115563,0.455832 0.08988,0.160504 0.211866,0.205446 0.121983,0.05136 0.417311,0.0963 0.243967,0.0321 0.404471,0.237547 0.160504,0.205445 0.160504,0.539294 0,0.776841 -0.943765,0.776841 -0.584236,0 -1.046488,-0.243967 -0.455832,-0.243966 -0.706219,-0.693378 -0.250387,-0.442992 -0.256807,-1.020808 -0.01926,-0.975866 -0.03852,-1.566522 -0.01926,-0.590656 -0.05778,-0.764 -0.0963,-0.430152 -0.288907,-0.648438 Q 9.9336906,15.772855 9.6255223,15.58667 9.3237742,15.394065 9.1953708,15.246401 9.0669673,15.092317 9.0669673,14.764888 q 0,-0.475093 0.37237,-0.712639 0.4622525,-0.288908 0.6548577,-0.487933 0.199025,-0.205446 0.276067,-0.520034 0.08346,-0.321009 0.0963,-0.693379 0.01284,-0.37879 0.03852,-1.810489 0.01926,-0.8859834 0.558555,-1.4124376 0.545715,-0.5328743 1.450959,-0.5328743 0.943765,0 0.943765,0.7640005 0,0.3466894 -0.160504,0.5457147 -0.154084,0.1990257 -0.404471,0.2311267 -0.37237,0.05136 -0.520034,0.154084 -0.147664,0.102722 -0.192605,0.39805 -0.04494,0.295328 -0.05778,1.142791 -0.01284,0.828202 -0.102723,1.361077 -0.08346,0.526454 -0.340269,0.898824 -0.250387,0.37237 -0.7319,0.674118 z"
         style="fill:#375b84;fill-opacity:1;stroke-width:0.70438462"
         id="path4524" /><path
         d="m 16.546469,14.764888 q -0.34669,-0.218286 -0.564975,-0.455832 -0.218286,-0.237547 -0.35953,-0.577816 -0.141244,-0.340269 -0.199025,-0.802521 -0.05778,-0.468673 -0.05778,-1.09785 0,-0.609916 -0.02568,-0.930925 -0.02568,-0.327429 -0.102722,-0.475093 -0.07704,-0.147664 -0.218286,-0.199025 -0.134824,-0.05778 -0.417312,-0.08988 -0.237546,-0.0321 -0.40447,-0.2311267 -0.160505,-0.1990253 -0.160505,-0.5457147 0,-0.7640005 0.930925,-0.7640005 0.597076,0 1.046488,0.2439665 0.455833,0.2375464 0.71264,0.6869585 0.263227,0.4429919 0.269647,1.0143869 0.03852,2.131498 0.08988,2.343363 0.102723,0.423732 0.301748,0.648438 0.199026,0.218286 0.481513,0.39163 0.282488,0.166925 0.417312,0.333849 0.141243,0.166925 0.141243,0.507194 0,0.481513 -0.365949,0.706219 -0.449413,0.276068 -0.654858,0.487933 -0.199025,0.205446 -0.282488,0.520034 -0.07704,0.308169 -0.0963,0.930925 -0.01284,0.622757 -0.0321,1.560102 -0.01926,0.885984 -0.571396,1.418858 -0.545714,0.539295 -1.457379,0.539295 -0.449412,0 -0.693378,-0.199025 -0.237547,-0.199026 -0.237547,-0.577816 0,-0.211866 0.07704,-0.391631 0.07704,-0.173344 0.199026,-0.269647 0.128403,-0.0963 0.288907,-0.115563 0.288908,-0.03852 0.430152,-0.0963 0.141244,-0.05778 0.211866,-0.218286 0.07704,-0.160505 0.0963,-0.475093 0.02568,-0.308168 0.02568,-0.905244 0.01284,-0.885984 0.102723,-1.386758 0.08988,-0.500773 0.340269,-0.860303 0.250387,-0.35953 0.73832,-0.667698 z"
         style="fill:#375b84;fill-opacity:1;stroke-width:0.70438462"
         id="path4526" /></g><g
       aria-label="CSS"
       style="font-style:normal;font-variant:normal;font-weight:bold;font-stretch:normal;font-size:6.11158466px;line-height:8.18515778px;font-family:sans-serif;-inkscape-font-specification:'sans-serif Bold';letter-spacing:0px;word-spacing:0px;fill:#375b84;fill-opacity:1;stroke:none;stroke-width:0.32740632"
       id="text4554"><path
         d="m 9.4646019,0.54873219 q -0.4953726,0 -0.9161409,-0.14622444 Q 8.1306769,0.25628331 7.8292755,-0.03318139 7.5278741,-0.32264609 7.3607605,-0.75535106 7.196631,-1.188056 7.196631,-1.7550487 q 0,-0.5281985 0.1581611,-0.9579193 0.1581611,-0.4297208 0.4595625,-0.7370906 0.2894647,-0.295433 0.7162014,-0.4565783 0.4297208,-0.1611453 0.93703,-0.1611453 0.2805122,0 0.5043251,0.032826 0.2267969,0.029842 0.4177839,0.080573 0.19994,0.056699 0.361085,0.1283194 0.16413,0.068636 0.286481,0.1283194 v 1.0772862 h -0.131304 q -0.08356,-0.07162 -0.211876,-0.1700978 -0.125335,-0.098478 -0.286481,-0.1939712 -0.164129,-0.095493 -0.355116,-0.1611453 -0.1909872,-0.065652 -0.4088318,-0.065652 -0.241718,0 -0.4595625,0.077589 -0.2178446,0.074604 -0.4028633,0.2506705 -0.1760661,0.1700978 -0.2864805,0.45061 -0.1074302,0.2805121 -0.1074302,0.6803912 0,0.4177841 0.1163827,0.6982963 0.1193669,0.2805122 0.2984172,0.4416575 0.1820345,0.16412947 0.4058474,0.23574961 0.223813,0.068636 0.4416575,0.068636 0.2088921,0 0.4118155,-0.0626676 0.205908,-0.0626676 0.37899,-0.17009781 0.146225,-0.086541 0.27156,-0.18501868 0.125335,-0.0984777 0.205908,-0.17009782 h 0.119367 v 1.06236531 q -0.167114,0.0746043 -0.319307,0.14025609 -0.152193,0.0656518 -0.319306,0.11339854 -0.217845,0.0626676 -0.4088318,0.0954935 -0.1909871,0.0328259 -0.5252143,0.0328259 z"
         style="font-style:normal;font-variant:normal;font-weight:bold;font-stretch:normal;font-family:sans-serif;-inkscape-font-specification:'sans-serif Bold';fill:#375b84;fill-opacity:1;stroke-width:0.32740632"
         id="path4517" /><path
         d="m 15.441899,-0.93440139 q 0,0.65651788 -0.55804,1.06833364 -0.555056,0.40883159 -1.509991,0.40883159 -0.552072,0 -0.963888,-0.0954935 -0.408832,-0.0984777 -0.766932,-0.24768629 v -1.06534947 h 0.125335 q 0.355116,0.28349635 0.79379,0.43568914 0.441657,0.15219278 0.847505,0.15219278 0.104446,0 0.274543,-0.017905 0.170098,-0.017905 0.277528,-0.0596835 0.131304,-0.0537151 0.214861,-0.13428775 0.08654,-0.0805727 0.08654,-0.23873377 0,-0.14622444 -0.125335,-0.25067047 -0.122351,-0.10743022 -0.361085,-0.16412942 -0.250671,-0.059684 -0.531183,-0.1104144 -0.277528,-0.053715 -0.52223,-0.1342878 -0.561024,-0.1820345 -0.808711,-0.4923884 -0.244702,-0.3133381 -0.244702,-0.7758848 0,-0.6207078 0.555056,-1.0116343 0.55804,-0.3939108 1.432403,-0.3939108 0.438673,0 0.86541,0.086541 0.429721,0.083557 0.743059,0.2118763 v 1.023571 h -0.122351 q -0.268576,-0.2148604 -0.659502,-0.3581006 -0.387943,-0.1462245 -0.79379,-0.1462245 -0.143241,0 -0.286481,0.020889 -0.140256,0.017905 -0.271559,0.07162 -0.116383,0.044763 -0.19994,0.1372719 -0.08356,0.089525 -0.08356,0.2059079 0,0.1760661 0.134288,0.2715596 0.134288,0.092509 0.507309,0.1700978 0.244702,0.050731 0.468515,0.098478 0.226797,0.047747 0.48642,0.1313036 0.510294,0.1671137 0.752012,0.4565784 0.244702,0.2864805 0.244702,0.74604301 z"
         style="font-style:normal;font-variant:normal;font-weight:bold;font-stretch:normal;font-family:sans-serif;-inkscape-font-specification:'sans-serif Bold';fill:#375b84;fill-opacity:1;stroke-width:0.32740632"
         id="path4519" /><path
         d="m 19.786853,-0.93440139 q 0,0.65651788 -0.55804,1.06833364 -0.555056,0.40883159 -1.509991,0.40883159 -0.552072,0 -0.963888,-0.0954935 -0.408831,-0.0984777 -0.766932,-0.24768629 v -1.06534947 h 0.125335 q 0.355117,0.28349635 0.79379,0.43568914 0.441658,0.15219278 0.847505,0.15219278 0.104446,0 0.274544,-0.017905 0.170098,-0.017905 0.277528,-0.0596835 0.131304,-0.0537151 0.21486,-0.13428775 0.08654,-0.0805727 0.08654,-0.23873377 0,-0.14622444 -0.125335,-0.25067047 -0.122351,-0.10743022 -0.361085,-0.16412942 -0.25067,-0.059684 -0.531182,-0.1104144 -0.277528,-0.053715 -0.522231,-0.1342878 -0.561024,-0.1820345 -0.80871,-0.4923884 -0.244702,-0.3133381 -0.244702,-0.7758848 0,-0.6207078 0.555056,-1.0116343 0.55804,-0.3939108 1.432402,-0.3939108 0.438674,0 0.86541,0.086541 0.429721,0.083557 0.743059,0.2118763 v 1.023571 h -0.122351 q -0.268575,-0.2148604 -0.659502,-0.3581006 -0.387942,-0.1462245 -0.79379,-0.1462245 -0.14324,0 -0.28648,0.020889 -0.140256,0.017905 -0.27156,0.07162 -0.116383,0.044763 -0.199939,0.1372719 -0.08356,0.089525 -0.08356,0.2059079 0,0.1760661 0.134287,0.2715596 0.134288,0.092509 0.50731,0.1700978 0.244702,0.050731 0.468515,0.098478 0.226797,0.047747 0.48642,0.1313036 0.510293,0.1671137 0.752011,0.4565784 0.244702,0.2864805 0.244702,0.74604301 z"
         style="font-style:normal;font-variant:normal;font-weight:bold;font-stretch:normal;font-family:sans-serif;-inkscape-font-specification:'sans-serif Bold';fill:#375b84;fill-opacity:1;stroke-width:0.32740632"
         id="path4521" /></g></g><g
     id="g36"
     transform="translate(0,5.1434275)" /><g
     id="g38"
     transform="translate(0,5.1434275)" /><g
     id="g40"
     transform="translate(0,5.1434275)" /><g
     id="g42"
     transform="translate(0,5.1434275)" /><g
     id="g44"
     transform="translate(0,5.1434275)" /><g
     id="g46"
     transform="translate(0,5.1434275)" /><g
     id="g48"
     transform="translate(0,5.1434275)" /><g
     id="g50"
     transform="translate(0,5.1434275)" /><g
     id="g52"
     transform="translate(0,5.1434275)" /><g
     id="g54"
     transform="translate(0,5.1434275)" /><g
     id="g56"
     transform="translate(0,5.1434275)" /><g
     id="g58"
     transform="translate(0,5.1434275)" /><g
     id="g60"
     transform="translate(0,5.1434275)" /><g
     id="g62"
     transform="translate(0,5.1434275)" /><g
     id="g64"
     transform="translate(0,5.1434275)" /></svg>