<?xml version="1.0" encoding="UTF-8" standalone="no"?>
<!-- Generator: Adobe Illustrator 19.0.0, SVG Export Plug-In . SVG Version: 6.00 Build 0)  -->

<svg
   xmlns:dc="http://purl.org/dc/elements/1.1/"
   xmlns:cc="http://creativecommons.org/ns#"
   xmlns:rdf="http://www.w3.org/1999/02/22-rdf-syntax-ns#"
   xmlns:svg="http://www.w3.org/2000/svg"
   xmlns="http://www.w3.org/2000/svg"
   xmlns:sodipodi="http://sodipodi.sourceforge.net/DTD/sodipodi-0.dtd"
   xmlns:inkscape="http://www.inkscape.org/namespaces/inkscape"
   version="1.1"
   id="Layer_1"
   x="0px"
   y="0px"
   viewBox="0 0 512 512"
   style="enable-background:new 0 0 512 512;"
   xml:space="preserve"
   sodipodi:docname="dollar-symbol.svg"
   inkscape:version="0.92.0 r15299"><metadata
     id="metadata53"><rdf:RDF><cc:Work
         rdf:about=""><dc:format>image/svg+xml</dc:format><dc:type
           rdf:resource="http://purl.org/dc/dcmitype/StillImage" /></cc:Work></rdf:RDF></metadata><defs
     id="defs51" /><sodipodi:namedview
     pagecolor="#ffffff"
     bordercolor="#666666"
     borderopacity="1"
     objecttolerance="10"
     gridtolerance="10"
     guidetolerance="10"
     inkscape:pageopacity="0"
     inkscape:pageshadow="2"
     inkscape:window-width="1920"
     inkscape:window-height="1017"
     id="namedview49"
     showgrid="false"
     inkscape:zoom="0.4609375"
     inkscape:cx="256"
     inkscape:cy="256"
     inkscape:window-x="-8"
     inkscape:window-y="-8"
     inkscape:window-maximized="1"
     inkscape:current-layer="Layer_1" /><path
     style="fill:#829aff;fill-opacity:1"
     d="M386.788,61.762c-64.74,0-104.056-36.613-120.996-57.115c-5.119-6.195-14.465-6.195-19.584,0  c-16.94,20.502-56.255,57.115-120.996,57.115h-72.26c-9.752,0-17.656,7.905-17.656,17.656v114.767  C35.295,397.234,198.78,494.344,256,512c57.22-17.656,220.705-114.767,220.705-317.815V79.418c0-9.752-7.905-17.656-17.656-17.656  L386.788,61.762L386.788,61.762z"
     id="path2" /><g
     id="g8"
     style="fill:#8e8e8e;fill-opacity:1"><path
       style="fill:#8e8e8e;fill-opacity:1"
       d="M254.474,128.904c-13.871,0-25.528,9.668-28.586,22.62c-36.258,8.829-58.17,34.307-58.17,69.028   c0,28.292,14.825,50.162,41.368,62.105c-1.266-0.14-2.549-0.212-3.841-0.212h-1.723c-12.692,0-24.428,6.907-30.628,18.025   c-6.2,11.116-5.933,24.176,0.713,34.936c10.582,17.136,29.21,28.821,53.267,33.675c4.112,11.261,14.932,19.324,27.599,19.324   c12.803,0,23.719-8.234,27.728-19.687c39.163-8.496,62.08-34.314,62.08-71.039c0-20.574-7.26-45.961-38.16-60.777   c10.636-1.651,20.065-8.15,25.383-17.779c6.158-11.148,5.82-24.184-0.903-34.872c-10.072-16.014-26.648-27.305-47.52-32.622   C280.066,138.624,268.384,128.904,254.474,128.904L254.474,128.904z M225.106,288.685c-0.34-0.236-0.682-0.467-1.03-0.69   c0.342,0.093,0.685,0.185,1.03,0.276V288.685L225.106,288.685z"
       id="path4" /><path
       style="fill:#8e8e8e;fill-opacity:1"
       d="M256,45.652c25.981,24.291,68.869,51.423,130.789,51.423h54.603v97.11   c0,78.687-26.745,147.471-79.493,204.438C323.364,440.241,280.41,464.432,256,474.455c-24.411-10.023-67.364-34.213-105.899-75.832   c-52.748-56.967-79.493-125.751-79.493-204.438v-97.11h54.603C187.131,97.075,230.019,69.942,256,45.652 M256,0   c-3.616,0-7.232,1.548-9.793,4.646c-16.94,20.502-56.255,57.115-120.996,57.115h-72.26c-9.751,0-17.656,7.906-17.656,17.656   v114.767c0,203.048,163.485,300.159,220.705,317.815c57.22-17.656,220.705-114.767,220.705-317.815V79.417   c0-9.751-7.906-17.656-17.656-17.656h-72.26c-64.74,0-104.056-36.613-120.996-57.115C263.233,1.549,259.616,0,256,0L256,0z"
       id="path6" /></g><path
     style="fill:#b0d8ff;fill-opacity:1"
     d="M256,483.282c-1.138,0-2.277-0.224-3.354-0.664c-13.941-5.724-62.987-28.269-109.016-77.997  C89.316,345.97,61.78,275.164,61.78,194.184v-97.11c0-4.88,3.948-8.828,8.828-8.828h54.607c59.754,0,100.826-26.674,124.759-49.046  c3.38-3.173,8.673-3.173,12.053,0c23.933,22.372,65.004,49.046,124.759,49.046h54.607c4.88,0,8.828,3.948,8.828,8.828v97.11  c0,80.98-27.536,151.786-81.851,210.437c-46.029,49.728-95.075,72.272-109.016,77.997C258.275,483.058,257.138,483.282,256,483.282z   M79.436,105.903v88.282c0,76.394,25.958,143.157,77.143,198.436c40.425,43.666,83.015,65.083,99.421,72.247  c16.406-7.164,58.996-28.579,99.421-72.247c51.185-55.28,77.143-122.043,77.143-198.436v-88.282h-45.779  c-60.746,0-103.895-25.157-130.785-48.383c-26.89,23.226-70.04,48.383-130.785,48.383L79.436,105.903L79.436,105.903z"
     id="path10" /><g
     id="g16"
     style="fill:#e8ffe8;fill-opacity:1"
     transform="matrix(0.99612323,0,0,0.97889849,0.71864211,3.092633)"><path
       style="fill:#e8ffe8;fill-opacity:1"
       d="m 326.626,297.678 c 0,-27.664 -16.318,-44.619 -48.953,-51.758 l -11.488,-2.255 v -47.549 c 8.769,1.836 15.69,7.034 19.143,13.962 2.922,5.862 8.882,9.581 15.433,9.581 13.345,0 22.002,-14.71 14.896,-26.007 -9.275,-14.746 -26.659,-24.634 -49.473,-27.168 v -8.212 c 0,-6.468 -5.243,-11.712 -11.712,-11.712 -6.468,0 -11.712,5.244 -11.712,11.712 v 8.209 c -36.207,3.942 -57.388,23.758 -57.388,54.07 0,26.517 16.445,44.237 47.169,51.376 l 10.219,2.41 v 49.97 c -10.348,-1.925 -18.22,-7.228 -22.106,-14.678 -3.019,-5.79 -8.882,-9.528 -15.412,-9.528 h -1.723 c -13.354,0 -21.91,14.666 -14.893,26.028 9.559,15.477 28.422,25.23 54.133,27.387 v 5.522 c 0,6.468 5.244,11.712 11.712,11.712 6.468,0 11.712,-5.243 11.712,-11.712 v -5.642 c 38.659,-3.982 60.443,-23.934 60.443,-55.718 z M 222.217,217.365 c 0,-11.127 8.404,-19.545 20.545,-21.435 v 42.81 c -13.418,-3.657 -20.545,-10.98 -20.545,-21.375 z m 43.967,107.397 V 278.77 c 16.6,3.735 24.364,11.129 24.364,22.988 0,12.916 -8.986,21.389 -24.364,23.004 z"
       id="path12"
       inkscape:connector-curvature="0" /><path
       style="fill:#e8ffe8;fill-opacity:1"
       d="m 326.626,297.678 c 0,-27.664 -16.318,-44.619 -48.953,-51.758 l -11.488,-2.255 v -47.549 c 8.769,1.836 15.69,7.034 19.143,13.962 2.922,5.862 8.882,9.581 15.433,9.581 13.345,0 22.002,-14.71 14.896,-26.007 -9.275,-14.746 -26.659,-24.634 -49.473,-27.168 v -8.212 c 0,-6.468 -5.243,-11.712 -11.712,-11.712 -6.468,0 -11.712,5.244 -11.712,11.712 v 8.209 c -36.207,3.942 -57.388,23.758 -57.388,54.07 0,26.517 16.445,44.237 47.169,51.376 l 10.219,2.41 v 49.97 c -10.348,-1.925 -18.22,-7.228 -22.106,-14.678 -3.019,-5.79 -8.882,-9.528 -15.412,-9.528 h -1.723 c -13.354,0 -21.91,14.666 -14.893,26.028 9.559,15.477 28.422,25.23 54.133,27.387 v 5.522 c 0,6.468 5.244,11.712 11.712,11.712 6.468,0 11.712,-5.243 11.712,-11.712 v -5.642 c 38.659,-3.982 60.443,-23.934 60.443,-55.718 z M 222.217,217.365 c 0,-11.127 8.404,-19.545 20.545,-21.435 v 42.81 c -13.418,-3.657 -20.545,-10.98 -20.545,-21.375 z m 43.967,107.397 V 278.77 c 16.6,3.735 24.364,11.129 24.364,22.988 0,12.916 -8.986,21.389 -24.364,23.004 z"
       id="path14"
       inkscape:connector-curvature="0" /></g><g
     id="g18" /><g
     id="g20" /><g
     id="g22" /><g
     id="g24" /><g
     id="g26" /><g
     id="g28" /><g
     id="g30" /><g
     id="g32" /><g
     id="g34" /><g
     id="g36" /><g
     id="g38" /><g
     id="g40" /><g
     id="g42" /><g
     id="g44" /><g
     id="g46" /></svg>