<?xml version="1.0" encoding="utf-8"?>
<!-- Generator: Adobe Illustrator 17.0.0, SVG Export Plug-In . SVG Version: 6.00 Build 0)  -->
<!DOCTYPE svg PUBLIC "-//W3C//DTD SVG 1.1//EN" "http://www.w3.org/Graphics/SVG/1.1/DTD/svg11.dtd">
<svg version="1.1" id="Capa_1" xmlns="http://www.w3.org/2000/svg" xmlns:xlink="http://www.w3.org/1999/xlink" x="0px" y="0px"
	 width="258px" height="321px" viewBox="0 0 258 321" enable-background="new 0 0 258 321" xml:space="preserve">
<g>
	<path fill="#546A79" d="M84.769,209.421c-1.201,0-2.402-0.46-3.316-1.374c-1.834-1.834-1.834-4.799,0-6.633l168.54-168.54
		c1.834-1.834,4.799-1.834,6.633,0c1.834,1.834,1.834,4.799,0,6.633l-168.54,168.54C87.171,208.962,85.97,209.421,84.769,209.421z"
		/>
	<path fill="#546A79" d="M253.309,127.879c-2.594,0-4.691-2.097-4.691-4.691V36.191c0-2.594,2.097-4.691,4.691-4.691
		S258,33.597,258,36.191v86.998C258,125.783,255.903,127.879,253.309,127.879z"/>
	<path fill="#546A79" d="M253.309,40.882h-86.993c-2.589,0-4.691-2.097-4.691-4.691c0-2.594,2.102-4.691,4.691-4.691h86.993
		c2.594,0,4.691,2.097,4.691,4.691C258,38.785,255.903,40.882,253.309,40.882z"/>
	<g>
		<circle fill="#73D0F4" cx="51.6" cy="237.9" r="46.909"/>
		<path fill="#73D0F4" d="M51.6,289.5C23.15,289.5,0,266.35,0,237.9s23.15-51.6,51.6-51.6s51.6,23.15,51.6,51.6
			S80.05,289.5,51.6,289.5z M51.6,195.682c-23.276,0-42.218,18.937-42.218,42.218s18.942,42.218,42.218,42.218
			s42.218-18.937,42.218-42.218S74.876,195.682,51.6,195.682z"/>
	</g>
</g>
</svg>
