<?xml version="1.0" encoding="iso-8859-1"?>
<!-- Generator: Adobe Illustrator 19.0.0, SVG Export Plug-In . SVG Version: 6.00 Build 0)  -->
<svg version="1.1" id="Layer_1" xmlns="http://www.w3.org/2000/svg" xmlns:xlink="http://www.w3.org/1999/xlink" x="0px" y="0px"
	 viewBox="0 0 512 512" style="enable-background:new 0 0 512 512;" xml:space="preserve">
<polygon style="fill:#CEE8FA;" points="312.679,408.404 366.288,497.41 433.406,497.41 379.795,408.404 "/>
<path style="fill:#2D527C;" d="M433.406,512h-67.118c-5.116,0-9.859-2.68-12.499-7.064l-53.611-89.006
	c-2.715-4.506-2.793-10.125-0.204-14.706c2.588-4.58,7.441-7.412,12.703-7.412h67.118c5.116,0,9.859,2.68,12.499,7.064
	l53.611,89.006c2.715,4.506,2.793,10.125,0.204,14.706C443.52,509.168,438.667,512,433.406,512z M374.533,482.818h33.05
	l-36.033-59.824H338.5L374.533,482.818z"/>
<polygon style="fill:#CEE8FA;" points="132.205,408.404 78.594,497.41 145.711,497.41 199.321,408.404 "/>
<path style="fill:#2D527C;" d="M145.711,512H78.594c-5.262,0-10.115-2.832-12.703-7.412c-2.588-4.582-2.511-10.201,0.204-14.706
	l53.611-89.006c2.64-4.383,7.383-7.064,12.499-7.064h67.118c5.262,0,10.115,2.832,12.703,7.412
	c2.588,4.582,2.511,10.201-0.204,14.706l-53.611,89.006C155.57,509.321,150.828,512,145.711,512z M104.416,482.818h33.05
	l36.033-59.824h-33.05L104.416,482.818z"/>
<path style="fill:#CEE8FA;" d="M289.559,61.283V48.151c0-18.458-15.102-33.56-33.56-33.56s-33.56,15.102-33.56,33.56v13.132H289.559
	z"/>
<g>
	<path style="fill:#2D527C;" d="M289.559,75.874H222.44c-8.059,0-14.591-6.534-14.591-14.591V48.151
		c0-26.55,21.6-48.151,48.15-48.151s48.151,21.601,48.151,48.151v13.132C304.15,69.34,297.618,75.874,289.559,75.874z
		 M237.086,46.692h37.826c-0.747-9.78-8.944-17.509-18.913-17.509C246.031,29.182,237.835,36.911,237.086,46.692z"/>
	<path style="fill:#2D527C;" d="M47.829,359.933c-8.059,0-14.591-6.534-14.591-14.591V89.093c0-23.379,19.021-42.4,42.399-42.4
		h360.726c23.378,0,42.399,19.02,42.399,42.4v180.209c0,8.057-6.532,14.591-14.591,14.591s-14.591-6.534-14.591-14.591V89.093
		c0-7.288-5.928-13.218-13.217-13.218H75.637c-7.288,0-13.217,5.928-13.217,13.218v256.248
		C62.42,353.399,55.888,359.933,47.829,359.933z"/>
</g>
<path style="fill:#CEE8FA;" d="M163.035,108.414c-1.694,44.621-37.982,80.931-82.6,82.666c-11.479,0.446-22.475-1.364-32.605-5.011
	V89.093c0-15.359,12.451-27.808,27.808-27.808h75.512C159.28,75.004,163.688,91.177,163.035,108.414z"/>
<g>
	<path style="fill:#2D527C;" d="M77.014,205.738c-11.695,0-23.177-1.999-34.127-5.94c-5.79-2.085-9.649-7.576-9.649-13.729V89.093
		c0-23.379,19.021-42.4,42.399-42.4h75.512c5.154,0,9.925,2.718,12.553,7.151c9.842,16.608,14.652,35.668,13.914,55.122
		c-1.98,52.19-44.417,94.661-96.614,96.693C79.667,205.712,78.338,205.738,77.014,205.738z M62.42,175.063
		c5.693,1.183,11.514,1.666,17.448,1.436c37.054-1.442,67.18-31.591,68.586-68.64c0.422-11.108-1.693-22.024-6.153-31.985H75.637
		c-7.288,0-13.217,5.928-13.217,13.218C62.42,89.092,62.42,175.063,62.42,175.063z"/>
	<path style="fill:#2D527C;" d="M214.582,242.63c-3.734,0-7.469-1.426-10.317-4.274l-27.723-27.723
		c-5.698-5.698-5.698-14.937,0-20.636c5.698-5.696,14.937-5.696,20.636,0l27.723,27.723c5.698,5.698,5.698,14.937,0,20.636
		C222.052,241.206,218.318,242.63,214.582,242.63z"/>
	<path style="fill:#2D527C;" d="M248.704,140.66h-39.246c-8.059,0-14.591-6.534-14.591-14.591s6.532-14.591,14.591-14.591h39.246
		c8.059,0,14.591,6.534,14.591,14.591S256.762,140.66,248.704,140.66z"/>
	<path style="fill:#2D527C;" d="M113.92,288.576c-8.059,0-14.591-6.534-14.591-14.591v-39.246c0-8.057,6.532-14.591,14.591-14.591
		s14.591,6.534,14.591,14.591v39.246C128.511,282.044,121.978,288.576,113.92,288.576z"/>
	<path style="fill:#2D527C;" d="M490.187,359.933H368.665c-8.059,0-14.591-6.534-14.591-14.591s6.532-14.591,14.591-14.591h121.522
		c8.059,0,14.591,6.534,14.591,14.591S498.246,359.933,490.187,359.933z"/>
	<path style="fill:#2D527C;" d="M292.477,359.933H21.813c-8.059,0-14.591-6.534-14.591-14.591s6.532-14.591,14.591-14.591h270.666
		c8.059,0,14.591,6.534,14.591,14.591S300.536,359.933,292.477,359.933z"/>
</g>
<g>
</g>
<g>
</g>
<g>
</g>
<g>
</g>
<g>
</g>
<g>
</g>
<g>
</g>
<g>
</g>
<g>
</g>
<g>
</g>
<g>
</g>
<g>
</g>
<g>
</g>
<g>
</g>
<g>
</g>
</svg>
