<?xml version="1.0" encoding="UTF-8" standalone="no"?>
<!-- Generator: Adobe Illustrator 18.1.1, SVG Export Plug-In . SVG Version: 6.00 Build 0)  -->

<svg
   xmlns:dc="http://purl.org/dc/elements/1.1/"
   xmlns:cc="http://creativecommons.org/ns#"
   xmlns:rdf="http://www.w3.org/1999/02/22-rdf-syntax-ns#"
   xmlns:svg="http://www.w3.org/2000/svg"
   xmlns="http://www.w3.org/2000/svg"
   xmlns:sodipodi="http://sodipodi.sourceforge.net/DTD/sodipodi-0.dtd"
   xmlns:inkscape="http://www.inkscape.org/namespaces/inkscape"
   version="1.1"
   id="Capa_1"
   x="0px"
   y="0px"
   viewBox="0 0 27.269 30.466428"
   xml:space="preserve"
   sodipodi:docname="html.svg"
   inkscape:version="0.92.0 r15299"
   width="27.268999"
   height="30.466427"><metadata
     id="metadata71"><rdf:RDF><cc:Work
         rdf:about=""><dc:format>image/svg+xml</dc:format><dc:type
           rdf:resource="http://purl.org/dc/dcmitype/StillImage" /><dc:title /></cc:Work></rdf:RDF></metadata><defs
     id="defs69" /><sodipodi:namedview
     pagecolor="#ffffff"
     bordercolor="#666666"
     borderopacity="1"
     objecttolerance="10"
     gridtolerance="10"
     guidetolerance="10"
     inkscape:pageopacity="0"
     inkscape:pageshadow="2"
     inkscape:window-width="1198"
     inkscape:window-height="792"
     id="namedview67"
     showgrid="false"
     inkscape:zoom="8.6545164"
     inkscape:cx="-0.35583254"
     inkscape:cy="11.688496"
     inkscape:window-x="355"
     inkscape:window-y="102"
     inkscape:window-maximized="0"
     inkscape:current-layer="text4550"
     fit-margin-top="0.7"
     fit-margin-left="0"
     fit-margin-right="0"
     fit-margin-bottom="0" /><g
     id="g34"
     transform="translate(0,5.1434275)"><rect
       style="opacity:1;fill:#fafcff;fill-opacity:1;fill-rule:nonzero"
       id="rect4556"
       width="23.374001"
       height="16.537001"
       x="-25.323"
       y="6.8379993"
       transform="scale(-1,1)" /><path
       d="M 25.323,1.946 H 1.949 C 0.869,1.946 0,2.816 0,3.895 v 19.479 c 0,1.075 0.869,1.949 1.949,1.949 h 23.375 c 1.071,0 1.945,-0.874 1.945,-1.949 V 3.895 c 0,-1.079 -0.874,-1.949 -1.946,-1.949 z M 9.314,3.412 c 0.535,0 0.973,0.431 0.973,0.973 0,0.536 -0.438,0.972 -0.973,0.972 C 8.775,5.357 8.338,4.921 8.338,4.385 8.339,3.842 8.776,3.412 9.314,3.412 Z m -2.982,0 c 0.537,0 0.974,0.431 0.974,0.973 0,0.536 -0.437,0.972 -0.974,0.972 C 5.793,5.357 5.357,4.921 5.357,4.385 5.356,3.842 5.792,3.412 6.332,3.412 Z m -2.924,0 c 0.539,0 0.975,0.431 0.975,0.973 0,0.536 -0.436,0.972 -0.975,0.972 -0.537,0 -0.971,-0.436 -0.971,-0.972 0,-0.543 0.434,-0.973 0.971,-0.973 z M 25.323,23.375 H 1.949 V 6.838 h 23.375 z m 0,-18.484 H 11.687 V 3.914 h 13.636 z"
       id="path2"
       style="fill:#aac1da;fill-opacity:1"
       inkscape:connector-curvature="0" /><g
       id="g4" /><g
       id="g6" /><g
       id="g8" /><g
       id="g10" /><g
       id="g12" /><g
       id="g14" /><g
       id="g16" /><g
       id="g18" /><g
       id="g20" /><g
       id="g22" /><g
       id="g24" /><g
       id="g26" /><g
       id="g28" /><g
       id="g30" /><g
       id="g32" /><g
       aria-label="&lt;/&gt;"
       style="font-style:normal;font-variant:normal;font-weight:normal;font-stretch:normal;font-size:13.14851379px;line-height:17.60961533px;font-family:'Arial Rounded MT Bold';-inkscape-font-specification:'Arial Rounded MT Bold, ';letter-spacing:0px;word-spacing:0px;fill:#375b84;fill-opacity:1;stroke:none;stroke-width:0.70438462"
       id="text4550"><path
         d="m 11.475143,16.65864 v 1.816909 L 5.0164491,15.676354 v -1.553682 l 6.4586939,-2.799195 v 1.829749 l -4.5005412,1.733447 z"
         style="fill:#375b84;fill-opacity:1;stroke-width:0.70438462"
         id="path4527" /><path
         d="m 15.481331,11.284956 -1.797649,7.402459 q -0.08988,0.36595 -0.160504,0.577815 -0.0642,0.211866 -0.205446,0.327429 -0.134823,0.121984 -0.39805,0.121984 -0.654858,0 -0.654858,-0.564976 0,-0.147664 0.128403,-0.73832 l 1.791229,-7.402459 q 0.141243,-0.590656 0.269647,-0.808942 0.128403,-0.2182854 0.500773,-0.2182854 0.321009,0 0.487933,0.1540844 0.173345,0.154084 0.173345,0.423731 0,0.199026 -0.134823,0.72548 z"
         style="fill:#375b84;fill-opacity:1;stroke-width:0.70438462"
         id="path4529" /><path
         d="m 22.851689,15.676354 -6.458694,2.812036 v -1.816909 l 4.513381,-1.771968 -4.513381,-1.746287 v -1.804069 l 6.458694,2.786355 z"
         style="fill:#375b84;fill-opacity:1;stroke-width:0.70438462"
         id="path4531" /></g><g
       aria-label="HTML"
       style="font-style:normal;font-variant:normal;font-weight:bold;font-stretch:normal;font-size:6.11158466px;line-height:8.18515778px;font-family:sans-serif;-inkscape-font-specification:'sans-serif Bold';letter-spacing:0px;word-spacing:0px;fill:#375b84;fill-opacity:1;stroke:none;stroke-width:0.32740632"
       id="text4554"><path
         d="M 9.1291917,0.46219119 H 7.9832696 V -1.4954258 H 6.2912439 V 0.46219119 H 5.1453218 V -3.9812412 h 1.1459221 v 1.6263738 h 1.6920257 v -1.6263738 h 1.1459221 z"
         style="font-style:normal;font-variant:normal;font-weight:bold;font-stretch:normal;font-family:sans-serif;-inkscape-font-specification:'sans-serif Bold';fill:#375b84;fill-opacity:1;stroke-width:0.32740632"
         id="path4518" /><path
         d="m 13.742722,-3.1217996 h -1.38764 V 0.46219119 H 11.20916 V -3.1217996 H 9.8215197 v -0.8594416 h 3.9212023 z"
         style="font-style:normal;font-variant:normal;font-weight:bold;font-stretch:normal;font-family:sans-serif;-inkscape-font-specification:'sans-serif Bold';fill:#375b84;fill-opacity:1;stroke-width:0.32740632"
         id="path4520" /><path
         d="M 19.090359,0.46219119 H 17.950405 V -2.5130285 l -0.823632,1.93075942 H 16.335968 L 15.512336,-2.5130285 v 2.97521969 h -1.08027 V -3.9812412 h 1.330941 l 0.999697,2.2291766 0.996714,-2.2291766 h 1.330941 z"
         style="font-style:normal;font-variant:normal;font-weight:bold;font-stretch:normal;font-family:sans-serif;-inkscape-font-specification:'sans-serif Bold';fill:#375b84;fill-opacity:1;stroke-width:0.32740632"
         id="path4522" /><path
         d="M 23.426361,0.46219119 H 20.22136 V -3.9812412 h 1.145922 v 3.5839908 h 2.059079 z"
         style="font-style:normal;font-variant:normal;font-weight:bold;font-stretch:normal;font-family:sans-serif;-inkscape-font-specification:'sans-serif Bold';fill:#375b84;fill-opacity:1;stroke-width:0.32740632"
         id="path4524" /></g></g><g
     id="g36"
     transform="translate(0,5.1434275)" /><g
     id="g38"
     transform="translate(0,5.1434275)" /><g
     id="g40"
     transform="translate(0,5.1434275)" /><g
     id="g42"
     transform="translate(0,5.1434275)" /><g
     id="g44"
     transform="translate(0,5.1434275)" /><g
     id="g46"
     transform="translate(0,5.1434275)" /><g
     id="g48"
     transform="translate(0,5.1434275)" /><g
     id="g50"
     transform="translate(0,5.1434275)" /><g
     id="g52"
     transform="translate(0,5.1434275)" /><g
     id="g54"
     transform="translate(0,5.1434275)" /><g
     id="g56"
     transform="translate(0,5.1434275)" /><g
     id="g58"
     transform="translate(0,5.1434275)" /><g
     id="g60"
     transform="translate(0,5.1434275)" /><g
     id="g62"
     transform="translate(0,5.1434275)" /><g
     id="g64"
     transform="translate(0,5.1434275)" /></svg>