<?xml version="1.0" encoding="utf-8"?>
<!-- Svg Vector Icons : http://www.onlinewebfonts.com/icon -->
<!DOCTYPE svg PUBLIC "-//W3C//DTD SVG 1.1//EN" "http://www.w3.org/Graphics/SVG/1.1/DTD/svg11.dtd">
<svg version="1.1" xmlns="http://www.w3.org/2000/svg" xmlns:xlink="http://www.w3.org/1999/xlink" x="0px" y="0px" viewBox="0 0 1000 1000" enable-background="new 0 0 1000 1000" xml:space="preserve">
<metadata> Svg Vector Icons : http://www.onlinewebfonts.com/icon </metadata>
<g><path d="M435.7,178.4H40.6c-18.4,0-30.6-15.3-30.6-30.6s12.3-30.6,30.6-30.6h395.1c18.4,0,30.6,12.3,30.6,30.6S454.1,178.4,435.7,178.4z"/><path d="M435.7,573.5H40.6c-18.4,0-30.6-12.3-30.6-30.6s12.3-30.6,30.6-30.6h395.1c18.4,0,30.6,12.3,30.6,30.6S454.1,573.5,435.7,573.5z"/><path d="M962.4,178.4H564.3c-18.4,0-30.6-12.3-30.6-30.6s12.3-30.6,30.6-30.6h395.1c18.4,0,30.6,12.3,30.6,30.6S977.8,178.4,962.4,178.4z"/><path d="M962.4,573.5H564.3c-18.4,0-30.6-12.3-30.6-30.6s12.3-30.6,30.6-30.6h395.1c18.4,0,30.6,12.3,30.6,30.6S977.8,573.5,962.4,573.5z"/><path d="M950.2,882.8H582.7c-21.4,0-39.8-18.4-39.8-39.8l0-205.2c0-21.4,18.4-39.8,39.8-39.8h367.5c21.4,0,39.8,18.4,39.8,39.8v208.3C986.9,867.5,971.6,882.8,950.2,882.8 M937.9,650.1H591.9v183.8h343L937.9,650.1L937.9,650.1z M950.2,493.9H582.7c-21.4,0-39.8-18.4-39.8-39.8l0-208.3c0-21.4,18.4-39.8,39.8-39.8h367.5c21.4,0,39.8,18.4,39.8,39.8l0,208.3C986.9,475.5,971.6,493.9,950.2,493.9 M937.9,258.1H591.9v183.8h343L937.9,258.1L937.9,258.1z M423.4,882.8H55.9c-21.4,0-39.8-18.4-39.8-39.8l0-205.2c0-21.4,18.4-39.8,39.8-39.8h367.5c21.4,0,39.8,18.4,39.8,39.8v208.3C463.3,867.5,444.9,882.8,423.4,882.8 M411.2,650.1h-343v183.8h343L411.2,650.1L411.2,650.1z M423.4,493.9H55.9c-21.4,0-39.8-18.4-39.8-39.8l0-208.3c0-21.4,18.4-39.8,39.8-39.8h367.5c21.4,0,39.8,18.4,39.8,39.8v208.3C463.3,475.5,444.9,493.9,423.4,493.9 M411.2,258.1h-343v183.8h343L411.2,258.1L411.2,258.1z"/></g>
</svg>