<?xml version="1.0" encoding="UTF-8" standalone="no"?>
<!-- Generator: Adobe Illustrator 18.1.1, SVG Export Plug-In . SVG Version: 6.00 Build 0)  -->

<svg
   xmlns:dc="http://purl.org/dc/elements/1.1/"
   xmlns:cc="http://creativecommons.org/ns#"
   xmlns:rdf="http://www.w3.org/1999/02/22-rdf-syntax-ns#"
   xmlns:svg="http://www.w3.org/2000/svg"
   xmlns="http://www.w3.org/2000/svg"
   xmlns:sodipodi="http://sodipodi.sourceforge.net/DTD/sodipodi-0.dtd"
   xmlns:inkscape="http://www.inkscape.org/namespaces/inkscape"
   version="1.1"
   id="Capa_1"
   x="0px"
   y="0px"
   viewBox="0 0 27.269 30.466428"
   xml:space="preserve"
   sodipodi:docname="js.svg"
   inkscape:version="0.92.0 r15299"
   width="27.268999"
   height="30.466427"><metadata
     id="metadata71"><rdf:RDF><cc:Work
         rdf:about=""><dc:format>image/svg+xml</dc:format><dc:type
           rdf:resource="http://purl.org/dc/dcmitype/StillImage" /><dc:title /></cc:Work></rdf:RDF></metadata><defs
     id="defs69" /><sodipodi:namedview
     pagecolor="#ffffff"
     bordercolor="#666666"
     borderopacity="1"
     objecttolerance="10"
     gridtolerance="10"
     guidetolerance="10"
     inkscape:pageopacity="0"
     inkscape:pageshadow="2"
     inkscape:window-width="1198"
     inkscape:window-height="792"
     id="namedview67"
     showgrid="false"
     inkscape:zoom="8.6545164"
     inkscape:cx="-0.35583254"
     inkscape:cy="11.688496"
     inkscape:window-x="355"
     inkscape:window-y="102"
     inkscape:window-maximized="0"
     inkscape:current-layer="g34"
     fit-margin-top="0.7"
     fit-margin-left="0"
     fit-margin-right="0"
     fit-margin-bottom="0" /><g
     id="g34"
     transform="translate(0,5.1434275)"><rect
       style="opacity:1;fill:#fafcff;fill-opacity:1;fill-rule:nonzero"
       id="rect4556"
       width="23.374001"
       height="16.537001"
       x="-25.323"
       y="6.8379993"
       transform="scale(-1,1)" /><path
       d="M 25.323,1.946 H 1.949 C 0.869,1.946 0,2.816 0,3.895 v 19.479 c 0,1.075 0.869,1.949 1.949,1.949 h 23.375 c 1.071,0 1.945,-0.874 1.945,-1.949 V 3.895 c 0,-1.079 -0.874,-1.949 -1.946,-1.949 z M 9.314,3.412 c 0.535,0 0.973,0.431 0.973,0.973 0,0.536 -0.438,0.972 -0.973,0.972 C 8.775,5.357 8.338,4.921 8.338,4.385 8.339,3.842 8.776,3.412 9.314,3.412 Z m -2.982,0 c 0.537,0 0.974,0.431 0.974,0.973 0,0.536 -0.437,0.972 -0.974,0.972 C 5.793,5.357 5.357,4.921 5.357,4.385 5.356,3.842 5.792,3.412 6.332,3.412 Z m -2.924,0 c 0.539,0 0.975,0.431 0.975,0.973 0,0.536 -0.436,0.972 -0.975,0.972 -0.537,0 -0.971,-0.436 -0.971,-0.972 0,-0.543 0.434,-0.973 0.971,-0.973 z M 25.323,23.375 H 1.949 V 6.838 h 23.375 z m 0,-18.484 H 11.687 V 3.914 h 13.636 z"
       id="path2"
       style="fill:#aac1da;fill-opacity:1"
       inkscape:connector-curvature="0" /><g
       id="g4" /><g
       id="g6" /><g
       id="g8" /><g
       id="g10" /><g
       id="g12" /><g
       id="g14" /><g
       id="g16" /><g
       id="g18" /><g
       id="g20" /><g
       id="g22" /><g
       id="g24" /><g
       id="g26" /><g
       id="g28" /><g
       id="g30" /><g
       id="g32" /><g
       aria-label="({})"
       style="font-style:normal;font-variant:normal;font-weight:normal;font-stretch:normal;font-size:13.14851379px;line-height:17.60961533px;font-family:'Arial Rounded MT Bold';-inkscape-font-specification:'Arial Rounded MT Bold, ';letter-spacing:0px;word-spacing:0px;fill:#375b84;fill-opacity:1;stroke:none;stroke-width:0.70438462"
       id="text4550"><path
         d="m 5.3567019,15.458167 q 0,-0.969446 0.1669245,-1.810488 Q 5.6905509,12.800216 6.03082,11.984854 6.3710892,11.163072 6.8718627,10.34129 7.1736108,9.8405162 7.3790563,9.6222303 7.5845018,9.3975243 7.7642667,9.3461629 q 0.186185,-0.057782 0.4750928,-0.057782 0.3145884,0 0.3145884,0.1733447 0,0.057782 -0.2953279,0.699799 -0.295328,0.635597 -0.5585551,1.335396 -0.2568069,0.699799 -0.4815129,1.746287 -0.2182859,1.046488 -0.2182859,2.214959 0,1.155631 0.2182859,2.189279 0.2182859,1.033648 0.4943533,1.791228 0.2824876,0.757581 0.558555,1.354657 0.2824876,0.603496 0.2824876,0.654858 0,0.173344 -0.3145884,0.173344 -0.295328,0 -0.481513,-0.0642 Q 7.5780817,21.49955 7.3790563,21.274844 7.1800309,21.050138 6.8718627,20.555785 6.364669,19.708322 6.03082,18.91864 5.7033912,18.135379 5.5300466,17.287917 5.3567019,16.440454 5.3567019,15.458167 Z"
         style="fill:#375b84;fill-opacity:1;stroke-width:0.70438462"
         id="path4523" /><path
         d="m 11.436606,15.458167 q 0.455832,0.282488 0.712639,0.635597 0.256807,0.34669 0.35953,0.892404 0.102722,0.539295 0.102722,1.386758 0,0.635597 0.02568,0.937345 0.0321,0.301748 0.115563,0.455832 0.08988,0.160505 0.211866,0.205446 0.121983,0.05136 0.417311,0.0963 0.243967,0.0321 0.404471,0.237547 0.160504,0.205445 0.160504,0.539294 0,0.776841 -0.943765,0.776841 -0.584236,0 -1.046488,-0.243966 -0.455833,-0.243967 -0.706219,-0.693379 -0.250387,-0.442992 -0.256807,-1.020807 -0.01926,-0.975867 -0.03852,-1.566523 -0.01926,-0.590656 -0.05778,-0.764 -0.0963,-0.430152 -0.288908,-0.648438 Q 10.422218,16.466134 10.11405,16.279949 9.812302,16.087344 9.6838985,15.93968 9.5554951,15.785596 9.5554951,15.458167 q 0,-0.475092 0.37237,-0.712639 0.4622529,-0.288908 0.6548579,-0.487933 0.199025,-0.205445 0.276067,-0.520034 0.08346,-0.321009 0.0963,-0.693379 0.01284,-0.37879 0.03852,-1.810488 0.01926,-0.885984 0.558555,-1.4124383 0.545714,-0.5328744 1.450959,-0.5328744 0.943765,0 0.943765,0.7640007 0,0.346689 -0.160504,0.545715 -0.154084,0.199025 -0.404471,0.231126 -0.37237,0.05136 -0.520034,0.154084 -0.147664,0.102723 -0.192605,0.398051 -0.04494,0.295328 -0.05778,1.14279 -0.01284,0.828203 -0.102722,1.361077 -0.08346,0.526454 -0.34027,0.898824 -0.250386,0.37237 -0.731899,0.674118 z"
         style="fill:#375b84;fill-opacity:1;stroke-width:0.70438462"
         id="path4525" /><path
         d="m 17.034997,15.458167 q -0.346689,-0.218286 -0.564975,-0.455832 -0.218286,-0.237546 -0.35953,-0.577815 -0.141244,-0.34027 -0.199025,-0.802522 -0.05778,-0.468673 -0.05778,-1.09785 0,-0.609916 -0.02568,-0.930925 -0.02568,-0.327428 -0.102723,-0.475092 -0.07704,-0.147664 -0.218286,-0.199026 -0.134824,-0.05778 -0.417311,-0.08988 -0.237547,-0.0321 -0.404471,-0.231126 -0.160505,-0.199026 -0.160505,-0.545715 0,-0.7640007 0.930926,-0.7640007 0.597076,0 1.046488,0.2439666 0.455832,0.2375464 0.712639,0.6869581 0.263227,0.442992 0.269647,1.014388 0.03852,2.131497 0.08988,2.343363 0.102722,0.423731 0.301748,0.648437 0.199025,0.218286 0.481513,0.391631 0.282487,0.166924 0.417311,0.333849 0.141244,0.166924 0.141244,0.507193 0,0.481513 -0.36595,0.706219 -0.449412,0.276068 -0.654858,0.487933 -0.199025,0.205446 -0.282487,0.520034 -0.07704,0.308169 -0.0963,0.930926 -0.01284,0.622756 -0.0321,1.560102 -0.01926,0.885983 -0.571395,1.418858 -0.545715,0.539294 -1.457379,0.539294 -0.449413,0 -0.693379,-0.199025 -0.237547,-0.199026 -0.237547,-0.577816 0,-0.211865 0.07704,-0.39163 0.07704,-0.173345 0.199025,-0.269647 0.128403,-0.0963 0.288908,-0.115564 0.288907,-0.03852 0.430151,-0.0963 0.141244,-0.05778 0.211866,-0.218286 0.07704,-0.160504 0.0963,-0.475093 0.02568,-0.308168 0.02568,-0.905244 0.01284,-0.885984 0.102723,-1.386758 0.08988,-0.500773 0.340269,-0.860303 0.250387,-0.359529 0.73832,-0.667698 z"
         style="fill:#375b84;fill-opacity:1;stroke-width:0.70438462"
         id="path4527" /><path
         d="m 23.13416,15.458167 q 0,1.412438 -0.37879,2.625851 -0.37237,1.213413 -1.13637,2.471767 -0.430152,0.706219 -0.680539,0.885983 -0.250386,0.179765 -0.680538,0.179765 -0.321009,0 -0.321009,-0.173344 0,-0.05778 0.269648,-0.622757 0.269647,-0.558555 0.558555,-1.335396 0.295328,-0.776841 0.507193,-1.823329 0.218286,-1.052909 0.218286,-2.20854 0,-1.162051 -0.218286,-2.214959 -0.218286,-1.052909 -0.507193,-1.823329 -0.288908,-0.770421 -0.558555,-1.335396 -0.269648,-0.5713956 -0.269648,-0.622757 0,-0.1733447 0.321009,-0.1733447 0.449412,0 0.693379,0.1733447 0.243966,0.1669245 0.667698,0.879564 0.37879,0.629177 0.661277,1.239093 0.282488,0.609916 0.468673,1.219833 0.192605,0.609916 0.288908,1.271194 0.0963,0.661278 0.0963,1.386757 z"
         style="fill:#375b84;fill-opacity:1;stroke-width:0.70438462"
         id="path4529" /></g><g
       aria-label="JS"
       style="font-style:normal;font-variant:normal;font-weight:bold;font-stretch:normal;font-size:6.11158466px;line-height:8.18515778px;font-family:sans-serif;-inkscape-font-specification:'sans-serif Bold';letter-spacing:0px;word-spacing:0px;fill:#375b84;fill-opacity:1;stroke:none;stroke-width:0.32740632"
       id="text4554"><path
         d="m 12.776184,-0.84189206 q 0,0.29244888 -0.104446,0.54908769 -0.104446,0.25365463 -0.310354,0.42972079 -0.217845,0.18800285 -0.525214,0.29244888 -0.30737,0.10146185 -0.760964,0.10146185 -0.30737,0 -0.57893,-0.0238734 -0.271559,-0.0208892 -0.477467,-0.0626676 v -0.90122 h 0.10743 q 0.14324,0.0537151 0.298417,0.10146185 0.155177,0.0447626 0.396895,0.0447626 0.313338,0 0.480452,-0.0835568 0.170098,-0.0835568 0.241718,-0.23276543 0.06864,-0.14622444 0.07759,-0.31930642 0.009,-0.17606612 0.009,-0.44762582 V -3.163578 h -1.017603 v -0.8176632 h 2.163525 z"
         style="font-style:normal;font-variant:normal;font-weight:bold;font-stretch:normal;font-family:sans-serif;-inkscape-font-specification:'sans-serif Bold';fill:#375b84;fill-opacity:1;stroke-width:0.32740632"
         id="path4518" /><path
         d="m 17.407619,-0.93440139 q 0,0.65651788 -0.55804,1.06833364 -0.555056,0.40883159 -1.509991,0.40883159 -0.552072,0 -0.963888,-0.0954935 -0.408831,-0.0984777 -0.766932,-0.24768629 v -1.06534947 h 0.125335 q 0.355117,0.28349635 0.79379,0.43568914 0.441658,0.15219278 0.847505,0.15219278 0.104446,0 0.274544,-0.017905 0.170098,-0.017905 0.277528,-0.0596835 0.131303,-0.0537151 0.21486,-0.13428775 0.08654,-0.0805727 0.08654,-0.23873377 0,-0.14622444 -0.125335,-0.25067047 -0.122351,-0.10743022 -0.361085,-0.16412942 -0.25067,-0.059684 -0.531182,-0.1104144 -0.277528,-0.053715 -0.522231,-0.1342878 -0.561024,-0.1820345 -0.80871,-0.4923884 -0.244702,-0.3133381 -0.244702,-0.7758848 0,-0.6207078 0.555056,-1.0116343 0.55804,-0.3939108 1.432402,-0.3939108 0.438674,0 0.86541,0.086541 0.429721,0.083557 0.743059,0.2118763 v 1.023571 H 17.109202 Q 16.840627,-2.954686 16.4497,-3.0979262 q -0.387942,-0.1462245 -0.79379,-0.1462245 -0.14324,0 -0.28648,0.020889 -0.140256,0.017905 -0.27156,0.07162 -0.116383,0.044763 -0.19994,0.1372719 -0.08356,0.089525 -0.08356,0.2059079 0,0.1760661 0.134287,0.2715596 0.134288,0.092509 0.50731,0.1700978 0.244702,0.050731 0.468515,0.098478 0.226797,0.047747 0.48642,0.1313036 0.510293,0.1671137 0.752011,0.4565784 0.244702,0.2864805 0.244702,0.74604301 z"
         style="font-style:normal;font-variant:normal;font-weight:bold;font-stretch:normal;font-family:sans-serif;-inkscape-font-specification:'sans-serif Bold';fill:#375b84;fill-opacity:1;stroke-width:0.32740632"
         id="path4520" /></g></g><g
     id="g36"
     transform="translate(0,5.1434275)" /><g
     id="g38"
     transform="translate(0,5.1434275)" /><g
     id="g40"
     transform="translate(0,5.1434275)" /><g
     id="g42"
     transform="translate(0,5.1434275)" /><g
     id="g44"
     transform="translate(0,5.1434275)" /><g
     id="g46"
     transform="translate(0,5.1434275)" /><g
     id="g48"
     transform="translate(0,5.1434275)" /><g
     id="g50"
     transform="translate(0,5.1434275)" /><g
     id="g52"
     transform="translate(0,5.1434275)" /><g
     id="g54"
     transform="translate(0,5.1434275)" /><g
     id="g56"
     transform="translate(0,5.1434275)" /><g
     id="g58"
     transform="translate(0,5.1434275)" /><g
     id="g60"
     transform="translate(0,5.1434275)" /><g
     id="g62"
     transform="translate(0,5.1434275)" /><g
     id="g64"
     transform="translate(0,5.1434275)" /></svg>