<?xml version="1.0" encoding="UTF-8" standalone="no"?>
<!-- Generator: Adobe Illustrator 17.0.0, SVG Export Plug-In . SVG Version: 6.00 Build 0)  -->

<svg
   xmlns:dc="http://purl.org/dc/elements/1.1/"
   xmlns:cc="http://creativecommons.org/ns#"
   xmlns:rdf="http://www.w3.org/1999/02/22-rdf-syntax-ns#"
   xmlns:svg="http://www.w3.org/2000/svg"
   xmlns="http://www.w3.org/2000/svg"
   xmlns:sodipodi="http://sodipodi.sourceforge.net/DTD/sodipodi-0.dtd"
   xmlns:inkscape="http://www.inkscape.org/namespaces/inkscape"
   version="1.1"
   id="_x31_"
   x="0px"
   y="0px"
   width="181.86104"
   height="59.060181"
   viewBox="0 0 181.86104 59.060183"
   xml:space="preserve"
   sodipodi:docname="logo.svg"
   inkscape:version="0.92.0 r15299"><metadata
     id="metadata23"><rdf:RDF><cc:Work
         rdf:about=""><dc:format>image/svg+xml</dc:format><dc:type
           rdf:resource="http://purl.org/dc/dcmitype/StillImage" /><dc:title></dc:title></cc:Work></rdf:RDF></metadata><defs
     id="defs21" /><sodipodi:namedview
     pagecolor="#ffffff"
     bordercolor="#666666"
     borderopacity="1"
     objecttolerance="10"
     gridtolerance="10"
     guidetolerance="10"
     inkscape:pageopacity="0"
     inkscape:pageshadow="2"
     inkscape:window-width="1256"
     inkscape:window-height="699"
     id="namedview19"
     showgrid="false"
     fit-margin-top="0"
     fit-margin-left="0"
     fit-margin-right="0"
     fit-margin-bottom="0"
     inkscape:zoom="1.4895068"
     inkscape:cx="90.930034"
     inkscape:cy="29.530339"
     inkscape:window-x="294"
     inkscape:window-y="121"
     inkscape:window-maximized="0"
     inkscape:current-layer="_x31_" /><path
     style="clip-rule:evenodd;display:none;fill:#6f6f6e;fill-rule:evenodd"
     d="m 62.130036,53.220845 h -0.655 v -4.817 h 0.655 z m 4.393,-4.302 h -1.548 v 4.302 h -0.652 v -4.302 h -1.545 v -0.515 h 3.745 z m 6.039,2.324 c 0,0.588 -0.183,1.076 -0.548,1.464 -0.365,0.388 -0.839,0.582 -1.421,0.582 -0.562,0 -1.02,-0.194 -1.372,-0.582 -0.351,-0.388 -0.527,-0.876 -0.527,-1.464 v -0.857 c 0,-0.586 0.176,-1.074 0.527,-1.465 0.352,-0.389 0.81,-0.585 1.372,-0.585 0.582,0 1.056,0.194 1.421,0.584 0.365,0.389 0.548,0.878 0.548,1.466 z m -0.652,-0.856 c 0,-0.439 -0.12,-0.799 -0.358,-1.081 -0.238,-0.281 -0.558,-0.421 -0.959,-0.421 -0.379,0 -0.682,0.14 -0.908,0.421 -0.227,0.281 -0.34,0.641 -0.34,1.081 v 0.859 c 0,0.442 0.113,0.805 0.34,1.086 0.226,0.281 0.529,0.421 0.908,0.421 0.403,0 0.724,-0.14 0.961,-0.42 0.237,-0.28 0.356,-0.643 0.356,-1.087 z m 3.077,-0.54 c 0.456,0 0.817,0.151 1.082,0.455 0.264,0.303 0.396,0.691 0.396,1.165 v 0.072 c 0,0.514 -0.143,0.934 -0.43,1.26 -0.287,0.326 -0.676,0.489 -1.171,0.489 -0.494,0 -0.885,-0.164 -1.172,-0.49 -0.288,-0.326 -0.432,-0.747 -0.432,-1.261 v -0.464 c 0,-0.706 0.149,-1.269 0.445,-1.688 0.297,-0.419 0.694,-0.679 1.192,-0.778 0.279,-0.05 0.48,-0.11 0.604,-0.18 0.124,-0.069 0.187,-0.184 0.187,-0.342 h 0.502 l 0.007,0.02 c 0.007,0.387 -0.085,0.642 -0.274,0.762 -0.19,0.122 -0.491,0.218 -0.903,0.288 -0.3,0.051 -0.557,0.166 -0.771,0.347 -0.213,0.182 -0.344,0.447 -0.393,0.797 l 0.012,0.017 c 0.13,-0.139 0.293,-0.252 0.49,-0.339 0.197,-0.086 0.405,-0.13 0.629,-0.13 z m -0.13,0.515 c -0.31,0 -0.545,0.105 -0.705,0.316 -0.158,0.21 -0.238,0.473 -0.238,0.789 v 0.072 c 0,0.358 0.08,0.653 0.238,0.885 0.159,0.232 0.396,0.349 0.712,0.349 0.312,0 0.547,-0.116 0.708,-0.349 0.162,-0.233 0.242,-0.528 0.242,-0.885 v -0.072 c 0,-0.316 -0.081,-0.579 -0.243,-0.789 -0.163,-0.211 -0.4,-0.316 -0.714,-0.316 z m 3.398,1.532 0.115,0.45 h 0.02 l 0.88,-2.7 h 0.725 l -1.505,4.125 c -0.09,0.24 -0.22,0.45 -0.389,0.628 -0.168,0.178 -0.397,0.268 -0.683,0.268 -0.052,0 -0.12,-0.006 -0.201,-0.018 -0.081,-0.012 -0.144,-0.024 -0.188,-0.035 l 0.066,-0.513 c -0.013,-0.002 0.026,0 0.117,0.007 0.092,0.007 0.15,0.01 0.174,0.01 0.139,0 0.253,-0.062 0.341,-0.185 0.088,-0.123 0.163,-0.26 0.221,-0.41 l 0.156,-0.373 -1.33,-3.504 h 0.728 z m 5.109,1.327 h -0.653 v -1.278 c -0.125,0.033 -0.254,0.058 -0.386,0.075 -0.133,0.017 -0.274,0.025 -0.424,0.025 -0.432,0 -0.771,-0.114 -1.017,-0.341 -0.246,-0.228 -0.369,-0.565 -0.369,-1.011 v -1.054 h 0.651 v 1.055 c 0,0.287 0.062,0.498 0.185,0.633 0.124,0.134 0.307,0.202 0.55,0.202 0.146,0 0.285,-0.008 0.417,-0.025 0.132,-0.017 0.263,-0.042 0.393,-0.075 v -1.783 h 0.653 z m 2.43,0.068 c -0.498,0 -0.894,-0.166 -1.189,-0.498 -0.295,-0.331 -0.442,-0.762 -0.442,-1.291 v -0.146 c 0,-0.509 0.151,-0.933 0.455,-1.272 0.302,-0.338 0.662,-0.507 1.077,-0.507 0.482,0 0.847,0.146 1.094,0.436 0.247,0.291 0.37,0.679 0.37,1.163 v 0.406 h -2.322 l -0.01,0.017 c 0.007,0.343 0.093,0.623 0.261,0.845 0.168,0.22 0.403,0.331 0.705,0.331 0.221,0 0.414,-0.032 0.581,-0.095 0.166,-0.062 0.31,-0.149 0.432,-0.26 l 0.254,0.424 c -0.128,0.128 -0.296,0.233 -0.506,0.317 -0.208,0.087 -0.462,0.13 -0.76,0.13 z m -0.098,-3.198 c -0.219,0 -0.405,0.092 -0.56,0.273 -0.154,0.183 -0.248,0.411 -0.285,0.686 l 0.007,0.017 h 1.651 v -0.085 c 0,-0.254 -0.068,-0.465 -0.204,-0.635 -0.139,-0.172 -0.341,-0.256 -0.609,-0.256 z m 5.093,3.13 h -0.651 v -1.518 h -1.594 v 1.518 h -0.652 v -3.577 h 0.652 v 1.545 h 1.594 v -1.545 h 0.651 z m 3.203,-3.577 h 0.651 v 3.577 h -0.651 v -2.538 l -0.019,-0.007 -1.582,2.545 h -0.648 v -3.577 h 0.648 v 2.538 l 0.02,0.007 z m 3.086,3.645 c -0.498,0 -0.894,-0.166 -1.189,-0.498 -0.295,-0.331 -0.442,-0.762 -0.442,-1.291 v -0.146 c 0,-0.509 0.151,-0.933 0.455,-1.272 0.302,-0.338 0.662,-0.507 1.077,-0.507 0.482,0 0.847,0.146 1.094,0.436 0.247,0.291 0.37,0.679 0.37,1.163 v 0.406 h -2.322 l -0.01,0.017 c 0.007,0.343 0.094,0.623 0.261,0.845 0.168,0.22 0.403,0.331 0.705,0.331 0.221,0 0.414,-0.032 0.581,-0.095 0.166,-0.062 0.309,-0.149 0.431,-0.26 l 0.254,0.424 c -0.128,0.128 -0.296,0.233 -0.506,0.317 -0.207,0.087 -0.461,0.13 -0.759,0.13 z m -0.098,-3.198 c -0.219,0 -0.405,0.092 -0.56,0.273 -0.154,0.183 -0.248,0.411 -0.285,0.686 l 0.007,0.017 h 1.651 v -0.085 c 0,-0.254 -0.068,-0.465 -0.204,-0.635 -0.138,-0.172 -0.34,-0.256 -0.609,-0.256 z m 6.777004,3.13 h -0.651 v -1.518 h -1.594 v 1.518 h -0.652 v -3.577 h 0.652 v 1.545 h 1.594 v -1.545 h 0.651 z m 3.153,0 c -0.021,-0.108 -0.038,-0.203 -0.051,-0.286 -0.012,-0.084 -0.019,-0.166 -0.021,-0.251 -0.122,0.173 -0.28,0.316 -0.475,0.431 -0.194,0.115 -0.405,0.173 -0.63,0.173 -0.372,0 -0.656,-0.096 -0.851,-0.287 -0.195,-0.191 -0.292,-0.454 -0.292,-0.789 0,-0.342 0.138,-0.61 0.414,-0.803 0.277,-0.193 0.653,-0.289 1.127,-0.289 h 0.708 v -0.352 c 0,-0.208 -0.064,-0.373 -0.192,-0.494 -0.128,-0.122 -0.309,-0.183 -0.543,-0.183 -0.209,0 -0.379,0.053 -0.51,0.159 -0.131,0.106 -0.198,0.234 -0.198,0.382 h -0.621 l -0.007,-0.019 c -0.013,-0.26 0.11,-0.498 0.368,-0.714 0.26,-0.216 0.594,-0.323 1.005,-0.323 0.406,0 0.732,0.103 0.979,0.309 0.247,0.205 0.37,0.504 0.37,0.891 v 1.723 c 0,0.129 0.007,0.252 0.019,0.371 0.013,0.12 0.038,0.236 0.073,0.351 z m -1.082,-0.481 c 0.236,0 0.449,-0.061 0.639,-0.182 0.19,-0.121 0.313,-0.26 0.37,-0.416 v -0.582 h -0.732 c -0.262,0 -0.472,0.065 -0.63,0.198 -0.157,0.132 -0.236,0.288 -0.236,0.466 0,0.158 0.05,0.283 0.149,0.376 0.099,0.094 0.246,0.14 0.44,0.14 z m 6.33,-0.373 h 0.019 l 1.171,-2.724 h 0.814 v 3.577 h -0.652 v -2.482 l -0.021,-0.007 -1.098,2.489 h -0.451 l -1.118,-2.545 -0.02,0.007 v 2.538 h -0.651 v -3.576 h 0.84 z m 5.267,-2.723 h 0.651 v 3.577 h -0.651 v -2.538 l -0.019,-0.007 -1.582,2.545 h -0.648 v -3.577 h 0.648 v 2.538 l 0.02,0.007 z m 4.502,0 v 3.577 h -0.651 v -3.063 h -1.211 v 1.012 c 0,0.705 -0.094,1.224 -0.281,1.555 -0.187,0.331 -0.507,0.496 -0.96,0.496 h -0.185 l 0.014,-0.549 0.135,-0.003 c 0.231,0 0.393,-0.113 0.485,-0.34 0.091,-0.226 0.138,-0.611 0.138,-1.154 v -1.531 z m 3.748,0 v 3.577 h -0.651 v -3.063 h -1.211 v 1.012 c 0,0.705 -0.094,1.224 -0.281,1.555 -0.187,0.331 -0.507,0.496 -0.96,0.496 h -0.185 l 0.014,-0.549 0.135,-0.003 c 0.231,0 0.393,-0.113 0.484,-0.34 0.091,-0.226 0.138,-0.611 0.138,-1.154 v -1.531 z m 3.096,0 h 0.651 v 3.577 h -0.651 v -2.538 l -0.019,-0.007 -1.582,2.545 h -0.648 v -3.577 h 0.648 v 2.538 l 0.02,0.007 z m 1.449,1.753 c 0,-0.528 0.143,-0.964 0.43,-1.308 0.287,-0.342 0.676,-0.514 1.168,-0.514 0.497,0 0.889,0.17 1.177,0.512 0.288,0.341 0.431,0.778 0.431,1.309 v 0.073 c 0,0.533 -0.143,0.97 -0.43,1.309 -0.287,0.34 -0.676,0.509 -1.171,0.509 -0.494,0 -0.885,-0.171 -1.172,-0.511 -0.288,-0.341 -0.432,-0.777 -0.432,-1.308 v -0.071 z m 0.651,0.071 c 0,0.378 0.08,0.69 0.24,0.936 0.159,0.246 0.398,0.369 0.713,0.369 0.312,0 0.546,-0.123 0.708,-0.369 0.162,-0.246 0.242,-0.558 0.242,-0.936 v -0.072 c 0,-0.374 -0.081,-0.684 -0.243,-0.933 -0.163,-0.249 -0.4,-0.373 -0.714,-0.373 -0.31,0 -0.547,0.124 -0.706,0.373 -0.16,0.248 -0.24,0.559 -0.24,0.933 z m 6.249,1.753 h -0.651 v -1.518 h -1.594 v 1.518 h -0.652 v -3.577 h 0.652 v 1.545 h 1.594 v -1.545 h 0.651 z"
     id="path2"
     inkscape:connector-curvature="0" /><path
     style="clip-rule:evenodd;fill:#1abcef;fill-rule:evenodd"
     d="m 46.500036,6.4768449 c -0.036,-0.02 -0.069,-0.042 -0.1,-0.067 h -6.263 v 0.003 h -6.324 l -6.323,10.9480001 6.323,10.955 h 6.324 v -0.003 h 6.324 l 6.323,-10.949 -3.162,-5.48 z m -0.013,-1.558 2.256,-4.50699995 c 0.184,-0.368 0.632,-0.517 0.999,-0.333 0.368,0.184 0.517,0.632 0.333,0.99999995 l -2.308,4.611 6.74,11.6710001 -7.186,12.448 h -7.184 v -0.003 h -7.184 l -7.185,-12.442 7.185,-12.4480001 h 7.184 v 0.003 z"
     id="path4"
     inkscape:connector-curvature="0" /><path
     style="clip-rule:evenodd;fill:#0082c6;fill-rule:evenodd"
     d="m 48.853036,31.668845 5.654,9.79 -6.741,11.678 2.824,4.8 c 0.209,0.354 0.091,0.811 -0.264,1.02 -0.354,0.209 -0.811,0.091 -1.02,-0.264 l -2.816,-4.786 h -6.353 v -0.003 h -7.184 l -6.861,-11.881 h -6.003 v -0.003 h -7.184 l -6.8650001,-11.888 -5.28900002,0.044 c -0.411,0.004 -0.748,-0.327 -0.751000004657,-0.739 -0.0039999953,-0.411 0.327000004657,-0.747 0.738000004657,-0.751 l 5.52200002,-0.046 6.6440001,-11.51 h 7.184 v 0.003 h 3.416 l 0.868,1.49 h -4.284 v 0.003 h -6.324 l -6.3230001,10.948 6.3230001,10.955 h 6.324 v -0.003 h 6.219 l 5.131,-8.889 1.825,0.007 -5.719,9.909 6.269,10.861 h 6.324 v -0.003 h 6.324 l 6.323,-10.948 -3.162,-5.479 -2.503,-4.336 z m -18.963,9.635 5.262,8.758 c 0.213,0.352 0.672,0.464 1.023,0.251 0.352,-0.214 0.464,-0.672 0.251,-1.023 l -5.261,-8.758 c -0.213,-0.352 -0.672,-0.464 -1.023,-0.251 -0.353,0.213 -0.465,0.671 -0.252,1.023 z m -14.936,-19.213 10.217,-0.047 c 0.412,-0.004 0.742,-0.34 0.738,-0.751 -0.003,-0.411 -0.34,-0.742 -0.751,-0.738 l -10.217,0.045 c -0.411,0.004 -0.742,0.34 -0.738,0.751 0.003,0.412 0.34,0.743 0.751,0.74 z"
     id="path6"
     inkscape:connector-curvature="0" /><path
     style="clip-rule:evenodd;fill:#0082c6;fill-rule:evenodd"
     d="m 84.099036,10.830845 c 0.242,0 0.44,0.069 0.595,0.207 0.155,0.138 0.233,0.328 0.233,0.569 l -0.052,0.336 -5.721,16.567 c -0.052,0.155 -0.143,0.276 -0.272,0.362 -0.13,0.086 -0.272,0.129 -0.427,0.129 -0.397,0 -0.656,-0.164 -0.777,-0.492 l -4.478,-11.053 -4.478,11.053 c -0.155,0.328 -0.414,0.492 -0.777,0.492 -0.155,0 -0.297,-0.043 -0.427,-0.129 -0.13,-0.086 -0.211,-0.207 -0.246,-0.362 l -5.72,-16.567 c -0.052,-0.103 -0.078,-0.207 -0.078,-0.311 0,-0.241 0.091,-0.435 0.272,-0.582 0.181,-0.147 0.376,-0.22 0.582,-0.22 0.173,0 0.328,0.043 0.466,0.129 0.138,0.087 0.233,0.207 0.285,0.362 l 5.073,14.807 4.349,-10.846 c 0.155,-0.345 0.397,-0.509 0.725,-0.492 0.173,-0.017 0.324,0.022 0.453,0.117 0.13,0.095 0.229,0.22 0.298,0.375 l 4.323,10.846 5.022,-14.807 c 0.139,-0.326 0.397,-0.49 0.777,-0.49 z m 14.314,16.644 c 0.225,0 0.41,0.078 0.557,0.233 0.147,0.155 0.22,0.337 0.22,0.544 0,0.225 -0.073,0.405 -0.22,0.543 -0.147,0.138 -0.332,0.207 -0.557,0.207 h -9.5 c -0.224,0 -0.41,-0.073 -0.556,-0.22 -0.147,-0.147 -0.22,-0.332 -0.22,-0.556 v -16.567 c 0,-0.225 0.073,-0.41 0.22,-0.557 0.147,-0.147 0.332,-0.22 0.556,-0.22 h 9.5 c 0.225,0 0.41,0.073 0.557,0.22 0.147,0.147 0.22,0.332 0.22,0.557 0,0.224 -0.073,0.405 -0.22,0.543 -0.147,0.138 -0.332,0.207 -0.557,0.207 h -8.646 v 6.497 h 7.481 c 0.224,0 0.41,0.073 0.556,0.22 0.147,0.147 0.22,0.332 0.22,0.556 0,0.224 -0.074,0.406 -0.22,0.544 -0.147,0.138 -0.332,0.207 -0.556,0.207 h -7.481 v 7.04 h 8.646 z m 14.108004,-8.102 c 1.035,0.259 1.881,0.777 2.536,1.553 0.656,0.777 0.984,1.786 0.984,3.029 0,1.691 -0.522,2.955 -1.566,3.792 -1.044,0.837 -2.343,1.256 -3.896,1.256 h -6.963 c -0.224,0 -0.41,-0.073 -0.556,-0.22 -0.147,-0.147 -0.22,-0.332 -0.22,-0.556 v -16.568 c 0,-0.225 0.073,-0.41 0.22,-0.557 0.147,-0.147 0.332,-0.22 0.556,-0.22 h 6.86 c 1.45,0 2.584,0.397 3.404,1.191 0.82,0.794 1.229,1.881 1.229,3.262 0,0.915 -0.224,1.734 -0.673,2.459 -0.448,0.725 -1.087,1.251 -1.915,1.579 z m 0.932,-3.908 c 0,-0.949 -0.28,-1.695 -0.841,-2.239 -0.561,-0.544 -1.342,-0.815 -2.342,-0.815 h -5.773 v 6.472 h 5.773 c 0.932,-0.018 1.696,-0.319 2.291,-0.906 0.594,-0.588 0.892,-1.425 0.892,-2.512 z m -2.951,12.01 c 1.156,0 2.092,-0.293 2.809,-0.88 0.716,-0.587 1.074,-1.467 1.074,-2.64 0,-1.208 -0.366,-2.097 -1.1,-2.666 -0.733,-0.569 -1.678,-0.854 -2.834,-0.854 h -5.954 v 7.04 z"
     id="path8"
     inkscape:connector-curvature="0" /><path
     style="clip-rule:evenodd;fill-rule:evenodd"
     d="m 70.763036,46.570845 c 0.208,0 0.38,0.064 0.516,0.192 0.136,0.128 0.204,0.296 0.204,0.504 0,0.208 -0.068,0.38 -0.204,0.516 -0.136,0.136 -0.308,0.204 -0.516,0.204 h -8.568 c -0.208,0 -0.38,-0.068 -0.516,-0.204 -0.136,-0.136 -0.204,-0.308 -0.204,-0.516 v -15.36 c 0,-0.208 0.072,-0.38 0.216,-0.516 0.144,-0.136 0.328,-0.204 0.552,-0.204 0.208,0 0.384,0.068 0.528,0.204 0.144,0.136 0.216,0.308 0.216,0.516 v 14.664 z m 13.08,-10.848 c 0.208,0 0.38,0.072 0.516,0.216 0.136,0.144 0.204,0.32 0.204,0.528 v 10.8 c 0,0.208 -0.068,0.38 -0.204,0.516 -0.136,0.136 -0.308,0.204 -0.516,0.204 -0.208,0 -0.38,-0.068 -0.516,-0.204 -0.136,-0.136 -0.204,-0.308 -0.204,-0.516 v -1.608 c -0.4,0.72 -1,1.328 -1.8,1.824 -0.8,0.496 -1.672,0.744 -2.616,0.744 -1.072,0 -2.036,-0.28 -2.892,-0.84 -0.856,-0.56 -1.528,-1.328 -2.016,-2.304 -0.488,-0.976 -0.732,-2.072 -0.732,-3.288 0,-1.216 0.248,-2.308 0.744,-3.276 0.496,-0.968 1.172,-1.724 2.028,-2.268 0.856,-0.544 1.804,-0.816 2.844,-0.816 0.96,0 1.84,0.232 2.64,0.696 0.8,0.464 1.4,1.072 1.8,1.824 v -1.488 c 0,-0.208 0.068,-0.384 0.204,-0.528 0.137,-0.144 0.309,-0.216 0.516,-0.216 z m -4.991,11.16 c 0.832,0 1.58,-0.22 2.244,-0.66 0.664,-0.44 1.184,-1.048 1.56,-1.824 0.376,-0.776 0.564,-1.644 0.564,-2.604 0,-0.928 -0.188,-1.776 -0.564,-2.544 -0.376,-0.768 -0.896,-1.372 -1.56,-1.812 -0.664,-0.44 -1.412,-0.66 -2.244,-0.66 -0.832,0 -1.58,0.216 -2.244,0.648 -0.664,0.432 -1.184,1.028 -1.56,1.788 -0.376,0.76 -0.564,1.62 -0.564,2.58 0,0.96 0.184,1.828 0.552,2.604 0.368,0.776 0.884,1.384 1.548,1.824 0.663,0.44 1.419,0.66 2.268,0.66 z m 15.312,-11.448 c 1.056,0 2.016,0.272 2.88,0.816 0.864,0.544 1.54,1.3 2.028,2.268 0.488,0.968 0.732,2.06 0.732,3.276 0,1.2 -0.244,2.292 -0.732,3.276 -0.488,0.984 -1.16,1.756 -2.016,2.316 -0.856,0.56 -1.812,0.84 -2.868,0.84 -0.912,0 -1.756,-0.228 -2.532,-0.684 -0.776,-0.456 -1.404,-1.06 -1.884,-1.812 v 1.584 c 0,0.208 -0.068,0.384 -0.204,0.528 -0.136,0.144 -0.308,0.216 -0.516,0.216 -0.208,0 -0.38,-0.072 -0.516,-0.216 -0.136,-0.144 -0.204,-0.32 -0.204,-0.528 v -16.344 c 0,-0.208 0.068,-0.38 0.204,-0.516 0.136,-0.136 0.308,-0.204 0.516,-0.204 0.208,0 0.38,0.068 0.516,0.204 0.136,0.136 0.204,0.308 0.204,0.516 v 7.08 c 0.432,-0.784 1.04,-1.416 1.824,-1.896 0.784,-0.48 1.64,-0.72 2.568,-0.72 z m -0.12,11.448 c 0.832,0 1.58,-0.224 2.244,-0.672 0.664,-0.448 1.184,-1.06 1.56,-1.836 0.376,-0.776 0.564,-1.636 0.564,-2.58 0,-0.96 -0.188,-1.82 -0.564,-2.58 -0.376,-0.76 -0.896,-1.356 -1.56,-1.788 -0.664,-0.432 -1.412,-0.648 -2.244,-0.648 -0.848,0 -1.608,0.212 -2.28,0.636 -0.672,0.424 -1.192,1.02 -1.56,1.788 -0.368,0.768 -0.552,1.632 -0.552,2.592 0,0.96 0.188,1.828 0.564,2.604 0.376,0.776 0.896,1.384 1.56,1.824 0.664,0.44 1.42,0.66 2.268,0.66 z m 20.064004,-5.04 c 0,1.2 -0.264,2.288 -0.792,3.264 -0.528,0.976 -1.256,1.74 -2.184,2.292 -0.928,0.552 -1.96,0.828 -3.096,0.828 -1.136,0 -2.168,-0.276 -3.096,-0.828 -0.928,-0.552 -1.656,-1.316 -2.184,-2.292 -0.528,-0.976 -0.792,-2.064 -0.792,-3.264 0,-1.2 0.264,-2.288 0.792,-3.264 0.528,-0.976 1.256,-1.744 2.184,-2.304 0.928,-0.56 1.96,-0.84 3.096,-0.84 1.136,0 2.168,0.28 3.096,0.84 0.928,0.56 1.656,1.328 2.184,2.304 0.528,0.976 0.792,2.064 0.792,3.264 z m -1.44,0 c 0,-0.96 -0.2,-1.824 -0.6,-2.592 -0.4,-0.768 -0.956,-1.372 -1.668,-1.812 -0.712,-0.44 -1.5,-0.66 -2.364,-0.66 -0.864,0 -1.648,0.22 -2.352,0.66 -0.704,0.44 -1.26,1.044 -1.668,1.812 -0.408,0.768 -0.612,1.632 -0.612,2.592 0,0.944 0.204,1.8 0.612,2.568 0.408,0.768 0.964,1.372 1.668,1.812 0.704,0.44 1.488,0.66 2.352,0.66 0.864,0 1.652,-0.216 2.364,-0.648 0.712,-0.432 1.268,-1.032 1.668,-1.8 0.4,-0.768 0.6,-1.632 0.6,-2.592 z m 10.128,-6.408 c 0.32,0 0.608,0.064 0.864,0.192 0.256,0.128 0.384,0.32 0.384,0.576 0,0.224 -0.064,0.404 -0.192,0.54 -0.128,0.136 -0.28,0.204 -0.456,0.204 -0.08,0 -0.236,-0.04 -0.468,-0.12 -0.232,-0.08 -0.452,-0.12 -0.66,-0.12 -0.592,0 -1.18,0.228 -1.764,0.684 -0.584,0.456 -1.064,1.044 -1.44,1.764 -0.376,0.72 -0.564,1.448 -0.564,2.184 v 5.928 c 0,0.208 -0.068,0.38 -0.204,0.516 -0.136,0.136 -0.308,0.204 -0.516,0.204 -0.208,0 -0.38,-0.068 -0.516,-0.204 -0.136,-0.136 -0.204,-0.308 -0.204,-0.516 v -10.752 c 0,-0.208 0.068,-0.38 0.204,-0.516 0.136,-0.136 0.308,-0.204 0.516,-0.204 0.208,0 0.38,0.068 0.516,0.204 0.136,0.136 0.204,0.308 0.204,0.516 v 2.112 c 0.368,-0.912 0.924,-1.668 1.668,-2.268 0.744,-0.6 1.62,-0.908 2.628,-0.924 z m 13.176,0.288 c 0.208,0 0.38,0.072 0.516,0.216 0.136,0.144 0.204,0.32 0.204,0.528 v 10.8 c 0,0.208 -0.068,0.38 -0.204,0.516 -0.136,0.136 -0.308,0.204 -0.516,0.204 -0.208,0 -0.38,-0.068 -0.516,-0.204 -0.136,-0.136 -0.204,-0.308 -0.204,-0.516 v -1.608 c -0.4,0.72 -1,1.328 -1.8,1.824 -0.8,0.496 -1.672,0.744 -2.616,0.744 -1.072,0 -2.036,-0.28 -2.892,-0.84 -0.856,-0.56 -1.528,-1.328 -2.016,-2.304 -0.488,-0.976 -0.732,-2.072 -0.732,-3.288 0,-1.216 0.248,-2.308 0.744,-3.276 0.496,-0.968 1.172,-1.724 2.028,-2.268 0.856,-0.544 1.804,-0.816 2.844,-0.816 0.96,0 1.84,0.232 2.64,0.696 0.8,0.464 1.4,1.072 1.8,1.824 v -1.488 c 0,-0.208 0.068,-0.384 0.204,-0.528 0.136,-0.144 0.308,-0.216 0.516,-0.216 z m -4.992,11.16 c 0.832,0 1.58,-0.22 2.244,-0.66 0.664,-0.44 1.184,-1.048 1.56,-1.824 0.376,-0.776 0.564,-1.644 0.564,-2.604 0,-0.928 -0.188,-1.776 -0.564,-2.544 -0.376,-0.768 -0.896,-1.372 -1.56,-1.812 -0.664,-0.44 -1.412,-0.66 -2.244,-0.66 -0.832,0 -1.58,0.216 -2.244,0.648 -0.664,0.432 -1.184,1.028 -1.56,1.788 -0.376,0.76 -0.564,1.62 -0.564,2.58 0,0.96 0.184,1.828 0.552,2.604 0.368,0.776 0.884,1.384 1.548,1.824 0.664,0.44 1.42,0.66 2.268,0.66 z m 11.88,-9.768 v 8.04 c 0,0.608 0.112,1.02 0.336,1.236 0.224,0.216 0.52,0.324 0.888,0.324 0.096,0 0.216,-0.02 0.36,-0.06 0.144,-0.04 0.256,-0.06 0.336,-0.06 0.144,0 0.268,0.06 0.372,0.18 0.104,0.12 0.156,0.26 0.156,0.42 0,0.224 -0.128,0.412 -0.384,0.564 -0.256,0.152 -0.56,0.228 -0.912,0.228 -0.432,0 -0.816,-0.04 -1.152,-0.12 -0.336,-0.08 -0.66,-0.32 -0.972,-0.72 -0.312,-0.4 -0.468,-1.04 -0.468,-1.92 v -8.112 h -1.752 c -0.192,0 -0.356,-0.064 -0.492,-0.192 -0.136,-0.128 -0.204,-0.288 -0.204,-0.48 0,-0.192 0.068,-0.352 0.204,-0.48 0.136,-0.128 0.3,-0.192 0.492,-0.192 h 1.752 v -2.664 c 0,-0.208 0.068,-0.38 0.204,-0.516 0.136,-0.136 0.308,-0.204 0.516,-0.204 0.208,0 0.38,0.068 0.516,0.204 0.136,0.136 0.204,0.308 0.204,0.516 v 2.664 h 2.4 c 0.176,0 0.332,0.072 0.468,0.216 0.136,0.144 0.204,0.304 0.204,0.48 0,0.192 -0.064,0.348 -0.192,0.468 -0.128,0.12 -0.288,0.18 -0.48,0.18 z m 16.945,4.728 c 0,1.2 -0.264,2.288 -0.792,3.264 -0.528,0.976 -1.256,1.74 -2.184,2.292 -0.928,0.552 -1.96,0.828 -3.096,0.828 -1.136,0 -2.168,-0.276 -3.096,-0.828 -0.928,-0.552 -1.656,-1.316 -2.184,-2.292 -0.528,-0.976 -0.792,-2.064 -0.792,-3.264 0,-1.2 0.264,-2.288 0.792,-3.264 0.528,-0.976 1.256,-1.744 2.184,-2.304 0.928,-0.56 1.96,-0.84 3.096,-0.84 1.136,0 2.168,0.28 3.096,0.84 0.928,0.56 1.656,1.328 2.184,2.304 0.527,0.976 0.792,2.064 0.792,3.264 z m -1.441,0 c 0,-0.96 -0.2,-1.824 -0.6,-2.592 -0.4,-0.768 -0.956,-1.372 -1.668,-1.812 -0.712,-0.44 -1.5,-0.66 -2.364,-0.66 -0.864,0 -1.648,0.22 -2.352,0.66 -0.704,0.44 -1.26,1.044 -1.668,1.812 -0.408,0.768 -0.612,1.632 -0.612,2.592 0,0.944 0.204,1.8 0.612,2.568 0.408,0.768 0.964,1.372 1.668,1.812 0.704,0.44 1.488,0.66 2.352,0.66 0.864,0 1.652,-0.216 2.364,-0.648 0.712,-0.432 1.268,-1.032 1.668,-1.8 0.4,-0.768 0.6,-1.632 0.6,-2.592 z m 10.128,-6.408 c 0.32,0 0.608,0.064 0.864,0.192 0.256,0.128 0.384,0.32 0.384,0.576 0,0.224 -0.064,0.404 -0.192,0.54 -0.128,0.136 -0.28,0.204 -0.456,0.204 -0.08,0 -0.236,-0.04 -0.468,-0.12 -0.232,-0.08 -0.452,-0.12 -0.66,-0.12 -0.592,0 -1.18,0.228 -1.764,0.684 -0.584,0.456 -1.064,1.044 -1.44,1.764 -0.376,0.72 -0.564,1.448 -0.564,2.184 v 5.928 c 0,0.208 -0.068,0.38 -0.204,0.516 -0.136,0.136 -0.308,0.204 -0.516,0.204 -0.208,0 -0.38,-0.068 -0.516,-0.204 -0.136,-0.136 -0.204,-0.308 -0.204,-0.516 v -10.752 c 0,-0.208 0.068,-0.38 0.204,-0.516 0.136,-0.136 0.308,-0.204 0.516,-0.204 0.208,0 0.38,0.068 0.516,0.204 0.136,0.136 0.204,0.308 0.204,0.516 v 2.112 c 0.368,-0.912 0.924,-1.668 1.668,-2.268 0.745,-0.6 1.62,-0.908 2.628,-0.924 z m 12.649,0.072 c 0.208,0 0.38,0.068 0.516,0.204 0.136,0.136 0.204,0.308 0.204,0.516 v 10.584 c 0,1.264 -0.248,2.344 -0.744,3.24 -0.496,0.896 -1.184,1.576 -2.064,2.04 -0.88,0.464 -1.872,0.696 -2.976,0.696 -0.672,0 -1.3,-0.072 -1.884,-0.216 -0.584,-0.144 -1.068,-0.336 -1.452,-0.576 -0.336,-0.208 -0.504,-0.44 -0.504,-0.696 0,-0.032 0.016,-0.112 0.048,-0.24 0.048,-0.16 0.128,-0.28 0.24,-0.36 0.112,-0.08 0.232,-0.12 0.36,-0.12 0.096,0 0.192,0.024 0.288,0.072 1.024,0.56 2,0.84 2.928,0.84 1.328,0 2.38,-0.416 3.156,-1.248 0.776,-0.832 1.164,-1.968 1.164,-3.408 v -0.84 c -0.4,0.672 -0.976,1.212 -1.728,1.62 -0.752,0.408 -1.568,0.612 -2.448,0.612 -1.392,0 -2.448,-0.416 -3.168,-1.248 -0.72,-0.832 -1.08,-1.96 -1.08,-3.384 v -7.368 c 0,-0.208 0.068,-0.38 0.204,-0.516 0.136,-0.136 0.308,-0.204 0.516,-0.204 0.208,0 0.38,0.068 0.516,0.204 0.136,0.136 0.204,0.308 0.204,0.516 v 7.152 c 0,1.152 0.252,2.024 0.756,2.616 0.504,0.592 1.292,0.888 2.364,0.888 0.656,0 1.284,-0.164 1.884,-0.492 0.6,-0.328 1.08,-0.76 1.44,-1.296 0.36,-0.536 0.54,-1.108 0.54,-1.716 v -7.152 c 0,-0.208 0.068,-0.38 0.204,-0.516 0.135,-0.136 0.308,-0.204 0.516,-0.204 z"
     id="path10"
     inkscape:connector-curvature="0" /><g
     id="g16"
     transform="translate(-36.628964,-41.336155)"><path
       style="clip-rule:evenodd;fill:#1abcef;fill-rule:evenodd"
       d="m 71.736,49.28 v 2.082 c 0,0.076 -0.028,0.14 -0.084,0.192 -0.056,0.051 -0.125,0.077 -0.207,0.077 -0.082,0 -0.15,-0.026 -0.203,-0.077 -0.053,-0.051 -0.079,-0.115 -0.079,-0.192 v -1.801 l 0.162,-0.281 z m 1.683,2.395 c -0.247,0 -0.459,-0.066 -0.636,-0.198 -0.178,-0.132 -0.312,-0.318 -0.403,-0.557 -0.091,-0.239 -0.136,-0.516 -0.136,-0.831 0,-0.305 0.043,-0.575 0.128,-0.809 h 0.618 l -0.014,0.02 c -0.107,0.179 -0.161,0.442 -0.161,0.789 0,0.347 0.054,0.609 0.161,0.789 0.107,0.179 0.255,0.269 0.443,0.269 0.188,0 0.336,-0.09 0.443,-0.269 0.107,-0.179 0.161,-0.442 0.161,-0.789 0,-0.346 -0.054,-0.609 -0.161,-0.789 l -0.013,-0.021 h 0.618 c 0.086,0.234 0.129,0.504 0.129,0.809 0,0.314 -0.045,0.591 -0.137,0.831 -0.091,0.239 -0.225,0.425 -0.403,0.557 -0.178,0.133 -0.39,0.199 -0.637,0.199 z m 2.626,-2.395 v 2.082 c 0,0.076 -0.028,0.14 -0.084,0.192 -0.056,0.051 -0.125,0.077 -0.207,0.077 -0.082,0 -0.15,-0.026 -0.203,-0.077 -0.053,-0.051 -0.079,-0.115 -0.079,-0.192 V 49.28 Z m -0.582,0 -0.263,0.162 c -0.044,0.026 -0.091,0.04 -0.141,0.04 -0.073,0 -0.136,-0.028 -0.187,-0.084 -0.034,-0.037 -0.056,-0.076 -0.068,-0.117 h 0.659 z m 2.265,2.395 c -0.247,0 -0.459,-0.066 -0.636,-0.198 -0.178,-0.132 -0.312,-0.318 -0.403,-0.557 -0.091,-0.239 -0.136,-0.516 -0.136,-0.831 0,-0.305 0.043,-0.575 0.128,-0.809 h 0.618 l -0.014,0.02 c -0.107,0.179 -0.161,0.442 -0.161,0.789 0,0.347 0.054,0.609 0.161,0.789 0.107,0.179 0.255,0.269 0.443,0.269 0.188,0 0.336,-0.09 0.443,-0.269 0.107,-0.179 0.161,-0.442 0.161,-0.789 0,-0.346 -0.054,-0.609 -0.161,-0.789 l -0.013,-0.021 h 0.139 v -0.003 h 0.477 c 0.087,0.235 0.13,0.506 0.13,0.812 0,0.314 -0.045,0.591 -0.137,0.831 -0.091,0.239 -0.225,0.425 -0.403,0.557 -0.177,0.133 -0.389,0.199 -0.636,0.199 z m 2.626,-2.398 v 2.085 c 0,0.076 -0.028,0.14 -0.084,0.192 -0.056,0.052 -0.125,0.077 -0.207,0.077 -0.082,0 -0.15,-0.026 -0.203,-0.077 -0.053,-0.051 -0.079,-0.115 -0.079,-0.192 v -2.085 z m -0.578,0 -0.269,0.165 c -0.044,0.026 -0.091,0.04 -0.141,0.04 -0.073,0 -0.136,-0.028 -0.187,-0.084 -0.035,-0.037 -0.058,-0.078 -0.069,-0.12 h 0.666 z m 2.26,2.398 c -0.247,0 -0.459,-0.066 -0.636,-0.198 -0.178,-0.132 -0.312,-0.318 -0.403,-0.557 -0.091,-0.239 -0.136,-0.516 -0.136,-0.831 0,-0.306 0.043,-0.577 0.13,-0.812 h 0.618 L 81.594,49.3 c -0.107,0.179 -0.161,0.442 -0.161,0.789 0,0.347 0.053,0.609 0.161,0.789 0.107,0.179 0.255,0.269 0.443,0.269 0.188,0 0.336,-0.09 0.443,-0.269 0.107,-0.179 0.161,-0.442 0.161,-0.789 v -0.062 l 0.466,0.808 -0.03,0.085 c -0.091,0.239 -0.225,0.425 -0.403,0.557 -0.179,0.132 -0.391,0.198 -0.638,0.198 z m -13.353,2.181 c -0.005,0.294 -0.05,0.555 -0.136,0.782 -0.091,0.239 -0.225,0.425 -0.403,0.557 -0.098,0.073 -0.207,0.125 -0.326,0.158 z m 1.19,-1.59 c 0.073,0 0.135,0.026 0.185,0.077 0.05,0.051 0.075,0.115 0.075,0.192 v 2.546 c 0,0.076 -0.028,0.14 -0.084,0.192 -0.056,0.051 -0.125,0.077 -0.207,0.077 -0.082,0 -0.15,-0.026 -0.203,-0.077 -0.053,-0.051 -0.079,-0.115 -0.079,-0.192 v -2.088 l -0.273,0.167 c -0.044,0.026 -0.091,0.04 -0.141,0.04 -0.027,0 -0.053,-0.004 -0.077,-0.012 l 0.455,-0.788 0.16,-0.095 c 0.049,-0.026 0.112,-0.039 0.189,-0.039 z m 1.942,3.128 c -0.247,0 -0.459,-0.066 -0.636,-0.198 -0.178,-0.132 -0.312,-0.318 -0.403,-0.557 -0.091,-0.239 -0.136,-0.516 -0.136,-0.831 0,-0.314 0.045,-0.591 0.136,-0.83 0.091,-0.24 0.226,-0.425 0.403,-0.557 0.177,-0.132 0.39,-0.198 0.636,-0.198 0.247,0 0.459,0.066 0.637,0.198 0.178,0.132 0.312,0.318 0.403,0.557 0.091,0.239 0.137,0.516 0.137,0.83 0,0.314 -0.045,0.591 -0.137,0.831 -0.091,0.239 -0.225,0.425 -0.403,0.557 -0.178,0.132 -0.39,0.198 -0.637,0.198 z m 0,-0.529 c 0.188,0 0.336,-0.09 0.443,-0.269 0.107,-0.179 0.161,-0.442 0.161,-0.789 0,-0.346 -0.053,-0.609 -0.161,-0.789 -0.107,-0.179 -0.255,-0.269 -0.443,-0.269 -0.188,0 -0.335,0.09 -0.443,0.269 -0.107,0.179 -0.161,0.442 -0.161,0.789 0,0.347 0.054,0.61 0.161,0.789 0.108,0.18 0.256,0.269 0.443,0.269 z m 2.367,-2.599 c 0.073,0 0.135,0.026 0.185,0.077 0.05,0.051 0.075,0.115 0.075,0.192 v 2.546 c 0,0.076 -0.028,0.14 -0.084,0.192 -0.056,0.051 -0.125,0.077 -0.207,0.077 -0.082,0 -0.15,-0.026 -0.203,-0.077 -0.053,-0.051 -0.079,-0.115 -0.079,-0.192 v -2.088 l -0.273,0.167 c -0.044,0.026 -0.091,0.04 -0.141,0.04 -0.074,0 -0.136,-0.028 -0.187,-0.084 -0.052,-0.056 -0.077,-0.117 -0.077,-0.185 0,-0.047 0.012,-0.091 0.037,-0.132 0.025,-0.041 0.058,-0.074 0.099,-0.097 l 0.665,-0.397 c 0.05,-0.026 0.113,-0.039 0.19,-0.039 z m 1.942,3.128 c -0.247,0 -0.459,-0.066 -0.636,-0.198 -0.178,-0.132 -0.312,-0.318 -0.403,-0.557 -0.091,-0.239 -0.136,-0.516 -0.136,-0.831 0,-0.314 0.045,-0.591 0.136,-0.83 0.091,-0.24 0.226,-0.425 0.403,-0.557 0.177,-0.132 0.39,-0.198 0.636,-0.198 0.247,0 0.459,0.066 0.637,0.198 0.178,0.132 0.312,0.318 0.403,0.557 0.091,0.239 0.137,0.516 0.137,0.83 0,0.314 -0.045,0.591 -0.137,0.831 -0.091,0.239 -0.225,0.425 -0.403,0.557 -0.178,0.132 -0.39,0.198 -0.637,0.198 z m 0,-0.529 c 0.188,0 0.336,-0.09 0.443,-0.269 0.107,-0.179 0.161,-0.442 0.161,-0.789 0,-0.346 -0.054,-0.609 -0.161,-0.789 -0.107,-0.179 -0.255,-0.269 -0.443,-0.269 -0.188,0 -0.335,0.09 -0.443,0.269 -0.107,0.179 -0.161,0.442 -0.161,0.789 0,0.347 0.054,0.61 0.161,0.789 0.108,0.18 0.255,0.269 0.443,0.269 z m 2.366,-2.599 c 0.073,0 0.135,0.026 0.185,0.077 0.05,0.051 0.075,0.115 0.075,0.192 v 2.546 c 0,0.076 -0.028,0.14 -0.084,0.192 -0.056,0.051 -0.125,0.077 -0.207,0.077 -0.082,0 -0.15,-0.026 -0.203,-0.077 -0.053,-0.051 -0.079,-0.115 -0.079,-0.192 v -2.088 l -0.273,0.167 c -0.044,0.026 -0.091,0.04 -0.141,0.04 -0.073,0 -0.136,-0.028 -0.187,-0.084 -0.052,-0.056 -0.077,-0.117 -0.077,-0.185 0,-0.047 0.012,-0.091 0.037,-0.132 0.025,-0.041 0.058,-0.074 0.099,-0.097 L 78.3,52.305 c 0.051,-0.026 0.114,-0.039 0.19,-0.039 z m 1.943,3.128 c -0.247,0 -0.459,-0.066 -0.636,-0.198 -0.178,-0.132 -0.312,-0.318 -0.403,-0.557 -0.091,-0.239 -0.136,-0.516 -0.136,-0.831 0,-0.314 0.045,-0.591 0.136,-0.83 0.091,-0.24 0.226,-0.425 0.403,-0.557 0.177,-0.132 0.39,-0.198 0.636,-0.198 0.247,0 0.459,0.066 0.637,0.198 0.178,0.132 0.312,0.318 0.403,0.557 0.091,0.239 0.137,0.516 0.137,0.83 0,0.314 -0.045,0.591 -0.137,0.831 -0.091,0.239 -0.225,0.425 -0.403,0.557 -0.178,0.132 -0.39,0.198 -0.637,0.198 z m 0,-0.529 c 0.188,0 0.336,-0.09 0.443,-0.269 0.107,-0.179 0.161,-0.442 0.161,-0.789 0,-0.346 -0.054,-0.609 -0.161,-0.789 -0.107,-0.179 -0.255,-0.269 -0.443,-0.269 -0.188,0 -0.335,0.09 -0.443,0.269 -0.107,0.179 -0.161,0.442 -0.161,0.789 0,0.347 0.054,0.61 0.161,0.789 0.107,0.18 0.255,0.269 0.443,0.269 z m 2.366,-2.599 c 0.073,0 0.135,0.026 0.185,0.077 0.05,0.051 0.075,0.115 0.075,0.192 v 2.546 c 0,0.076 -0.028,0.14 -0.084,0.192 -0.056,0.051 -0.125,0.077 -0.207,0.077 -0.082,0 -0.15,-0.026 -0.203,-0.077 -0.053,-0.051 -0.079,-0.115 -0.079,-0.192 v -2.088 l -0.273,0.167 c -0.044,0.026 -0.091,0.04 -0.141,0.04 -0.073,0 -0.136,-0.028 -0.187,-0.084 -0.052,-0.056 -0.077,-0.117 -0.077,-0.185 0,-0.047 0.012,-0.091 0.037,-0.132 0.025,-0.041 0.058,-0.074 0.099,-0.097 l 0.665,-0.397 c 0.05,-0.026 0.113,-0.039 0.19,-0.039 z m 1.942,3.128 c -0.247,0 -0.459,-0.066 -0.636,-0.198 -0.178,-0.132 -0.312,-0.318 -0.403,-0.557 -0.091,-0.239 -0.136,-0.516 -0.136,-0.831 0,-0.314 0.045,-0.591 0.136,-0.83 0.081,-0.213 0.196,-0.383 0.346,-0.512 l 0.287,0.498 C 84.322,52.982 84.31,53 84.299,53.02 c -0.107,0.179 -0.161,0.442 -0.161,0.789 0,0.347 0.053,0.61 0.161,0.789 0.107,0.179 0.255,0.269 0.443,0.269 0.188,0 0.336,-0.09 0.443,-0.269 0.016,-0.027 0.031,-0.055 0.044,-0.085 l 0.31,0.537 c -0.049,0.055 -0.102,0.104 -0.16,0.147 -0.179,0.131 -0.391,0.197 -0.638,0.197 z m -17.356,0.709 c 0.028,0.043 0.042,0.094 0.042,0.151 V 58.8 c 0,0.076 -0.028,0.14 -0.084,0.192 -0.056,0.051 -0.125,0.077 -0.207,0.077 -0.082,0 -0.15,-0.026 -0.203,-0.077 C 66.88,58.941 66.854,58.877 66.854,58.8 v -1.779 z m 1.725,3.01 c -0.247,0 -0.459,-0.066 -0.636,-0.198 -0.178,-0.132 -0.312,-0.318 -0.403,-0.557 -0.091,-0.239 -0.136,-0.516 -0.136,-0.83 0,-0.314 0.045,-0.591 0.136,-0.83 0.091,-0.24 0.226,-0.425 0.403,-0.557 0.177,-0.132 0.39,-0.198 0.636,-0.198 0.247,0 0.459,0.066 0.637,0.198 0.178,0.132 0.312,0.318 0.403,0.557 0.091,0.239 0.137,0.516 0.137,0.83 0,0.314 -0.045,0.591 -0.137,0.83 -0.091,0.239 -0.225,0.425 -0.403,0.557 -0.178,0.132 -0.39,0.198 -0.637,0.198 z m 0,-0.529 c 0.188,0 0.336,-0.09 0.443,-0.269 0.107,-0.179 0.161,-0.442 0.161,-0.789 0,-0.346 -0.054,-0.61 -0.161,-0.789 -0.107,-0.179 -0.255,-0.269 -0.443,-0.269 -0.188,0 -0.335,0.09 -0.443,0.269 -0.107,0.179 -0.161,0.442 -0.161,0.789 0,0.347 0.054,0.609 0.161,0.789 0.108,0.18 0.255,0.269 0.443,0.269 z m 2.366,-2.599 c 0.073,0 0.135,0.026 0.185,0.077 0.05,0.051 0.075,0.115 0.075,0.192 V 58.8 c 0,0.076 -0.028,0.14 -0.084,0.192 -0.056,0.051 -0.125,0.077 -0.207,0.077 -0.082,0 -0.15,-0.026 -0.203,-0.077 -0.053,-0.051 -0.079,-0.115 -0.079,-0.192 v -2.088 l -0.273,0.167 c -0.044,0.026 -0.091,0.04 -0.141,0.04 -0.073,0 -0.136,-0.028 -0.187,-0.084 -0.052,-0.056 -0.077,-0.117 -0.077,-0.185 0,-0.047 0.012,-0.091 0.037,-0.132 0.025,-0.041 0.058,-0.073 0.099,-0.097 l 0.665,-0.397 c 0.051,-0.026 0.114,-0.039 0.19,-0.039 z m 1.943,3.128 c -0.247,0 -0.459,-0.066 -0.636,-0.198 -0.178,-0.132 -0.312,-0.318 -0.403,-0.557 -0.091,-0.239 -0.136,-0.516 -0.136,-0.83 0,-0.314 0.045,-0.591 0.136,-0.83 0.091,-0.24 0.226,-0.425 0.403,-0.557 0.177,-0.132 0.39,-0.198 0.636,-0.198 0.247,0 0.459,0.066 0.637,0.198 0.178,0.132 0.312,0.318 0.403,0.557 0.091,0.239 0.137,0.516 0.137,0.83 0,0.314 -0.045,0.591 -0.137,0.83 -0.091,0.239 -0.225,0.425 -0.403,0.557 -0.178,0.132 -0.39,0.198 -0.637,0.198 z m 0,-0.529 c 0.188,0 0.336,-0.09 0.443,-0.269 0.107,-0.179 0.161,-0.442 0.161,-0.789 0,-0.346 -0.054,-0.61 -0.161,-0.789 -0.107,-0.179 -0.255,-0.269 -0.443,-0.269 -0.188,0 -0.335,0.09 -0.443,0.269 -0.107,0.179 -0.161,0.442 -0.161,0.789 0,0.347 0.054,0.609 0.161,0.789 0.108,0.18 0.255,0.269 0.443,0.269 z m 2.366,-2.599 c 0.073,0 0.135,0.026 0.185,0.077 0.05,0.051 0.075,0.115 0.075,0.192 V 58.8 c 0,0.076 -0.028,0.14 -0.084,0.192 -0.056,0.051 -0.125,0.077 -0.207,0.077 -0.082,0 -0.15,-0.026 -0.203,-0.077 -0.053,-0.051 -0.079,-0.115 -0.079,-0.192 v -2.088 l -0.273,0.167 c -0.044,0.026 -0.091,0.04 -0.141,0.04 -0.073,0 -0.136,-0.028 -0.187,-0.084 -0.052,-0.056 -0.077,-0.117 -0.077,-0.185 0,-0.047 0.012,-0.091 0.037,-0.132 0.025,-0.041 0.058,-0.073 0.099,-0.097 l 0.665,-0.397 c 0.05,-0.026 0.114,-0.039 0.19,-0.039 z m 1.943,3.128 c -0.247,0 -0.459,-0.066 -0.636,-0.198 -0.178,-0.132 -0.312,-0.318 -0.403,-0.557 -0.091,-0.239 -0.136,-0.516 -0.136,-0.83 0,-0.314 0.045,-0.591 0.136,-0.83 0.091,-0.24 0.226,-0.425 0.403,-0.557 0.177,-0.132 0.39,-0.198 0.636,-0.198 0.247,0 0.459,0.066 0.637,0.198 0.178,0.132 0.312,0.318 0.403,0.557 0.091,0.239 0.137,0.516 0.137,0.83 0,0.314 -0.045,0.591 -0.137,0.83 -0.091,0.239 -0.225,0.425 -0.403,0.557 -0.178,0.132 -0.39,0.198 -0.637,0.198 z m 0,-0.529 c 0.188,0 0.336,-0.09 0.443,-0.269 0.107,-0.179 0.161,-0.442 0.161,-0.789 0,-0.346 -0.054,-0.61 -0.161,-0.789 -0.107,-0.179 -0.255,-0.269 -0.443,-0.269 -0.188,0 -0.335,0.09 -0.443,0.269 -0.107,0.179 -0.161,0.442 -0.161,0.789 0,0.347 0.054,0.609 0.161,0.789 0.107,0.18 0.255,0.269 0.443,0.269 z m 2.366,-2.599 c 0.073,0 0.135,0.026 0.185,0.077 0.05,0.051 0.075,0.115 0.075,0.192 V 58.8 c 0,0.076 -0.028,0.14 -0.084,0.192 -0.056,0.052 -0.125,0.077 -0.207,0.077 -0.082,0 -0.15,-0.026 -0.203,-0.077 -0.053,-0.051 -0.079,-0.115 -0.079,-0.192 v -2.088 l -0.273,0.167 c -0.044,0.026 -0.091,0.04 -0.141,0.04 -0.073,0 -0.136,-0.028 -0.187,-0.084 -0.052,-0.056 -0.077,-0.117 -0.077,-0.185 0,-0.047 0.012,-0.091 0.037,-0.132 0.025,-0.041 0.058,-0.073 0.099,-0.097 l 0.665,-0.397 c 0.05,-0.026 0.113,-0.039 0.19,-0.039 z m 1.942,3.128 c -0.247,0 -0.459,-0.066 -0.636,-0.198 -0.178,-0.132 -0.312,-0.318 -0.403,-0.557 -0.091,-0.239 -0.136,-0.516 -0.136,-0.83 0,-0.314 0.045,-0.591 0.136,-0.83 0.091,-0.24 0.226,-0.425 0.403,-0.557 0.177,-0.132 0.39,-0.198 0.636,-0.198 0.247,0 0.459,0.066 0.637,0.198 0.178,0.132 0.312,0.318 0.403,0.557 0.091,0.239 0.137,0.516 0.137,0.83 0,0.314 -0.045,0.591 -0.137,0.83 -0.091,0.239 -0.225,0.425 -0.403,0.557 -0.178,0.132 -0.39,0.198 -0.637,0.198 z m 0,-0.529 c 0.188,0 0.336,-0.09 0.443,-0.269 0.107,-0.179 0.161,-0.442 0.161,-0.789 0,-0.346 -0.053,-0.61 -0.161,-0.789 -0.107,-0.179 -0.255,-0.269 -0.443,-0.269 -0.188,0 -0.335,0.09 -0.443,0.269 -0.107,0.179 -0.161,0.442 -0.161,0.789 0,0.347 0.053,0.609 0.161,0.789 0.108,0.18 0.255,0.269 0.443,0.269 z m 2.366,-2.599 c 0.073,0 0.135,0.026 0.185,0.077 0.05,0.051 0.075,0.115 0.075,0.192 V 58.8 c 0,0.076 -0.028,0.14 -0.084,0.192 -0.056,0.051 -0.125,0.077 -0.207,0.077 -0.082,0 -0.15,-0.026 -0.203,-0.077 -0.053,-0.051 -0.079,-0.115 -0.079,-0.192 v -2.088 l -0.273,0.167 c -0.044,0.026 -0.091,0.04 -0.141,0.04 -0.073,0 -0.136,-0.028 -0.187,-0.084 -0.052,-0.056 -0.077,-0.117 -0.077,-0.185 0,-0.047 0.012,-0.091 0.037,-0.132 0.025,-0.041 0.058,-0.073 0.099,-0.097 l 0.665,-0.397 c 0.051,-0.026 0.114,-0.039 0.19,-0.039 z m 1.943,3.128 c -0.247,0 -0.459,-0.066 -0.636,-0.198 -0.178,-0.132 -0.312,-0.318 -0.403,-0.557 -0.091,-0.239 -0.136,-0.516 -0.136,-0.83 0,-0.314 0.045,-0.591 0.136,-0.83 0.091,-0.24 0.226,-0.425 0.403,-0.557 0.108,-0.081 0.229,-0.136 0.363,-0.168 l 0.287,0.498 h -0.014 c -0.188,0 -0.335,0.09 -0.443,0.269 -0.107,0.179 -0.161,0.442 -0.161,0.789 0,0.347 0.054,0.609 0.161,0.789 0.107,0.179 0.255,0.269 0.443,0.269 0.188,0 0.336,-0.09 0.443,-0.269 0.107,-0.179 0.161,-0.442 0.161,-0.789 v -0.035 l 0.46,0.798 -0.024,0.068 c -0.091,0.239 -0.225,0.425 -0.403,0.557 -0.178,0.13 -0.39,0.196 -0.637,0.196 z"
       id="path12"
       inkscape:connector-curvature="0" /><path
       style="clip-rule:evenodd;fill:#1abcef;fill-rule:evenodd"
       d="m 66.669,60.053 c 0.059,-0.074 0.126,-0.139 0.201,-0.195 0.177,-0.132 0.39,-0.198 0.636,-0.198 0.247,0 0.459,0.066 0.637,0.198 0.178,0.132 0.312,0.318 0.403,0.557 0.091,0.239 0.137,0.516 0.137,0.83 0,0.314 -0.045,0.591 -0.137,0.831 -0.089,0.234 -0.22,0.417 -0.392,0.549 l -0.281,-0.486 c 0.028,-0.031 0.052,-0.065 0.076,-0.105 0.107,-0.179 0.161,-0.442 0.161,-0.789 0,-0.346 -0.054,-0.609 -0.161,-0.789 -0.107,-0.179 -0.255,-0.269 -0.443,-0.269 -0.188,0 -0.335,0.09 -0.443,0.269 -0.028,0.046 -0.052,0.098 -0.072,0.155 z m 3.204,-0.349 c 0.073,0 0.135,0.025 0.185,0.077 0.05,0.051 0.075,0.115 0.075,0.192 v 2.546 c 0,0.076 -0.028,0.14 -0.084,0.192 -0.056,0.051 -0.125,0.077 -0.207,0.077 -0.082,0 -0.15,-0.026 -0.203,-0.077 C 69.586,62.66 69.56,62.596 69.56,62.519 v -2.088 l -0.273,0.167 c -0.044,0.026 -0.091,0.04 -0.141,0.04 -0.073,0 -0.136,-0.028 -0.187,-0.084 -0.052,-0.056 -0.077,-0.117 -0.077,-0.185 0,-0.047 0.012,-0.091 0.037,-0.132 0.025,-0.041 0.058,-0.073 0.099,-0.097 l 0.665,-0.396 c 0.05,-0.027 0.113,-0.04 0.19,-0.04 z m 1.942,3.128 c -0.247,0 -0.459,-0.066 -0.636,-0.198 -0.178,-0.132 -0.312,-0.318 -0.403,-0.557 -0.091,-0.239 -0.136,-0.516 -0.136,-0.831 0,-0.314 0.045,-0.591 0.136,-0.83 0.091,-0.24 0.226,-0.425 0.403,-0.557 0.177,-0.132 0.39,-0.198 0.636,-0.198 0.247,0 0.459,0.066 0.637,0.198 0.178,0.132 0.312,0.318 0.403,0.557 0.091,0.239 0.137,0.516 0.137,0.83 0,0.314 -0.045,0.591 -0.137,0.831 -0.091,0.239 -0.225,0.425 -0.403,0.557 -0.178,0.132 -0.39,0.198 -0.637,0.198 z m 0,-0.529 c 0.188,0 0.336,-0.09 0.443,-0.269 0.107,-0.179 0.161,-0.442 0.161,-0.789 0,-0.346 -0.053,-0.609 -0.161,-0.789 -0.107,-0.179 -0.255,-0.269 -0.443,-0.269 -0.188,0 -0.335,0.09 -0.443,0.269 -0.107,0.179 -0.161,0.442 -0.161,0.789 0,0.347 0.054,0.61 0.161,0.789 0.108,0.18 0.256,0.269 0.443,0.269 z m 2.367,-2.599 c 0.073,0 0.135,0.025 0.185,0.077 0.05,0.051 0.075,0.115 0.075,0.192 v 2.546 c 0,0.076 -0.028,0.14 -0.084,0.192 -0.056,0.051 -0.125,0.077 -0.207,0.077 -0.082,0 -0.15,-0.026 -0.203,-0.077 -0.053,-0.051 -0.079,-0.115 -0.079,-0.192 v -2.088 l -0.273,0.167 c -0.044,0.026 -0.091,0.04 -0.141,0.04 -0.074,0 -0.136,-0.028 -0.187,-0.084 -0.052,-0.056 -0.077,-0.117 -0.077,-0.185 0,-0.047 0.012,-0.091 0.037,-0.132 0.025,-0.041 0.058,-0.073 0.099,-0.097 l 0.665,-0.396 c 0.05,-0.027 0.113,-0.04 0.19,-0.04 z m 1.942,3.128 c -0.247,0 -0.459,-0.066 -0.636,-0.198 -0.178,-0.132 -0.312,-0.318 -0.403,-0.557 -0.091,-0.239 -0.136,-0.516 -0.136,-0.831 0,-0.314 0.045,-0.591 0.136,-0.83 0.091,-0.24 0.226,-0.425 0.403,-0.557 0.177,-0.132 0.39,-0.198 0.636,-0.198 0.247,0 0.459,0.066 0.637,0.198 0.178,0.132 0.312,0.318 0.403,0.557 0.091,0.239 0.137,0.516 0.137,0.83 0,0.314 -0.045,0.591 -0.137,0.831 -0.091,0.239 -0.225,0.425 -0.403,0.557 -0.178,0.132 -0.39,0.198 -0.637,0.198 z m 0,-0.529 c 0.188,0 0.336,-0.09 0.443,-0.269 0.107,-0.179 0.161,-0.442 0.161,-0.789 0,-0.346 -0.054,-0.609 -0.161,-0.789 -0.107,-0.179 -0.255,-0.269 -0.443,-0.269 -0.188,0 -0.335,0.09 -0.443,0.269 -0.107,0.179 -0.161,0.442 -0.161,0.789 0,0.347 0.054,0.61 0.161,0.789 0.108,0.18 0.255,0.269 0.443,0.269 z m 2.366,-2.599 c 0.073,0 0.135,0.025 0.185,0.077 0.05,0.051 0.075,0.115 0.075,0.192 v 2.546 c 0,0.076 -0.028,0.14 -0.084,0.192 -0.056,0.051 -0.125,0.077 -0.207,0.077 -0.082,0 -0.15,-0.026 -0.203,-0.077 -0.053,-0.051 -0.079,-0.115 -0.079,-0.192 v -2.088 l -0.273,0.167 c -0.044,0.026 -0.091,0.04 -0.141,0.04 -0.073,0 -0.136,-0.028 -0.187,-0.084 -0.052,-0.056 -0.077,-0.117 -0.077,-0.185 0,-0.047 0.012,-0.091 0.037,-0.132 0.025,-0.041 0.058,-0.073 0.099,-0.097 L 78.3,59.744 c 0.051,-0.027 0.114,-0.04 0.19,-0.04 z m 1.943,3.128 c -0.247,0 -0.459,-0.066 -0.636,-0.198 -0.178,-0.132 -0.312,-0.318 -0.403,-0.557 -0.091,-0.239 -0.136,-0.516 -0.136,-0.831 0,-0.314 0.045,-0.591 0.136,-0.83 0.091,-0.24 0.226,-0.425 0.403,-0.557 0.177,-0.132 0.39,-0.198 0.636,-0.198 0.247,0 0.459,0.066 0.637,0.198 0.178,0.132 0.312,0.318 0.403,0.557 0.091,0.239 0.137,0.516 0.137,0.83 0,0.314 -0.045,0.591 -0.137,0.831 -0.091,0.239 -0.225,0.425 -0.403,0.557 -0.178,0.132 -0.39,0.198 -0.637,0.198 z m 0,-0.529 c 0.188,0 0.336,-0.09 0.443,-0.269 0.107,-0.179 0.161,-0.442 0.161,-0.789 0,-0.346 -0.054,-0.609 -0.161,-0.789 -0.107,-0.179 -0.255,-0.269 -0.443,-0.269 -0.188,0 -0.335,0.09 -0.443,0.269 -0.107,0.179 -0.161,0.442 -0.161,0.789 0,0.347 0.054,0.61 0.161,0.789 0.107,0.18 0.255,0.269 0.443,0.269 z m 2.366,-2.599 c 0.073,0 0.135,0.025 0.185,0.077 0.05,0.051 0.075,0.115 0.075,0.192 v 2.546 c 0,0.076 -0.028,0.14 -0.084,0.192 -0.056,0.052 -0.125,0.077 -0.207,0.077 -0.082,0 -0.15,-0.026 -0.203,-0.077 -0.053,-0.051 -0.079,-0.115 -0.079,-0.192 v -2.088 l -0.273,0.167 c -0.044,0.026 -0.091,0.04 -0.141,0.04 -0.073,0 -0.136,-0.028 -0.187,-0.084 -0.052,-0.056 -0.077,-0.117 -0.077,-0.185 0,-0.047 0.012,-0.091 0.037,-0.132 0.025,-0.041 0.058,-0.073 0.099,-0.097 l 0.665,-0.396 c 0.05,-0.027 0.113,-0.04 0.19,-0.04 z m 1.942,3.128 c -0.247,0 -0.459,-0.066 -0.636,-0.198 -0.178,-0.132 -0.312,-0.318 -0.403,-0.557 -0.091,-0.239 -0.136,-0.516 -0.136,-0.831 0,-0.314 0.045,-0.591 0.136,-0.83 0.091,-0.24 0.226,-0.425 0.403,-0.557 0.177,-0.132 0.39,-0.198 0.636,-0.198 0.247,0 0.459,0.066 0.637,0.198 0.178,0.132 0.312,0.318 0.403,0.557 0.091,0.239 0.137,0.516 0.137,0.83 0,0.192 -0.017,0.371 -0.051,0.535 l -0.496,0.859 c -0.176,0.128 -0.386,0.192 -0.63,0.192 z m 0,-0.529 c 0.188,0 0.336,-0.09 0.443,-0.269 0.108,-0.179 0.161,-0.442 0.161,-0.789 0,-0.346 -0.053,-0.609 -0.161,-0.789 -0.107,-0.179 -0.254,-0.269 -0.443,-0.269 -0.188,0 -0.335,0.09 -0.443,0.269 -0.107,0.179 -0.161,0.442 -0.161,0.789 0,0.347 0.053,0.61 0.161,0.789 0.108,0.18 0.255,0.269 0.443,0.269 z m 1.824,-1.731 -0.043,0.026 c -0.044,0.026 -0.091,0.04 -0.141,0.04 -0.073,0 -0.136,-0.028 -0.187,-0.084 -0.052,-0.056 -0.077,-0.117 -0.077,-0.185 0,-0.047 0.012,-0.091 0.037,-0.132 0.025,-0.041 0.058,-0.073 0.099,-0.097 l 0.665,-0.396 c 0.04,-0.021 0.09,-0.034 0.147,-0.038 z m -17.92,2.903 c 0.139,-0.064 0.294,-0.096 0.466,-0.096 0.247,0 0.459,0.066 0.637,0.198 0.178,0.132 0.312,0.318 0.403,0.557 0.091,0.239 0.137,0.516 0.137,0.83 0,0.314 -0.045,0.591 -0.137,0.831 -0.022,0.057 -0.046,0.111 -0.073,0.162 l -0.383,-0.663 c 0.013,-0.1 0.019,-0.21 0.019,-0.33 0,-0.346 -0.054,-0.609 -0.161,-0.789 -0.107,-0.179 -0.255,-0.269 -0.443,-0.269 -0.071,0 -0.135,0.012 -0.194,0.038 z m 2.831,-0.052 c 0.073,0 0.135,0.026 0.185,0.077 0.05,0.051 0.075,0.115 0.075,0.192 v 2.546 c 0,0.076 -0.028,0.14 -0.084,0.192 -0.056,0.051 -0.125,0.077 -0.207,0.077 -0.082,0 -0.15,-0.026 -0.203,-0.077 -0.053,-0.051 -0.079,-0.115 -0.079,-0.192 V 64.15 l -0.273,0.167 c -0.044,0.026 -0.091,0.04 -0.141,0.04 -0.073,0 -0.136,-0.028 -0.187,-0.084 -0.052,-0.056 -0.077,-0.117 -0.077,-0.185 0,-0.047 0.012,-0.091 0.037,-0.132 0.025,-0.041 0.058,-0.073 0.099,-0.097 l 0.665,-0.397 c 0.051,-0.026 0.114,-0.039 0.19,-0.039 z m 1.943,3.128 c -0.247,0 -0.459,-0.066 -0.636,-0.198 -0.178,-0.132 -0.312,-0.318 -0.403,-0.557 -0.091,-0.239 -0.136,-0.516 -0.136,-0.831 0,-0.314 0.045,-0.591 0.136,-0.83 0.091,-0.239 0.226,-0.425 0.403,-0.557 0.177,-0.132 0.39,-0.198 0.636,-0.198 0.247,0 0.459,0.066 0.637,0.198 0.178,0.132 0.312,0.318 0.403,0.557 0.091,0.239 0.137,0.516 0.137,0.83 0,0.314 -0.045,0.591 -0.137,0.831 -0.091,0.239 -0.225,0.425 -0.403,0.557 -0.178,0.132 -0.39,0.198 -0.637,0.198 z m 0,-0.529 c 0.188,0 0.336,-0.09 0.443,-0.269 0.107,-0.179 0.161,-0.442 0.161,-0.789 0,-0.346 -0.054,-0.609 -0.161,-0.789 -0.107,-0.179 -0.255,-0.269 -0.443,-0.269 -0.188,0 -0.335,0.09 -0.443,0.269 -0.107,0.179 -0.161,0.442 -0.161,0.789 0,0.347 0.054,0.609 0.161,0.789 0.108,0.18 0.255,0.269 0.443,0.269 z m 2.366,-2.599 c 0.073,0 0.135,0.026 0.185,0.077 0.05,0.051 0.075,0.115 0.075,0.192 v 2.546 c 0,0.076 -0.028,0.14 -0.084,0.192 -0.056,0.051 -0.125,0.077 -0.207,0.077 -0.082,0 -0.15,-0.026 -0.203,-0.077 -0.053,-0.051 -0.079,-0.115 -0.079,-0.192 V 64.15 l -0.273,0.167 c -0.044,0.026 -0.091,0.04 -0.141,0.04 -0.073,0 -0.136,-0.028 -0.187,-0.084 -0.052,-0.056 -0.077,-0.117 -0.077,-0.185 0,-0.047 0.012,-0.091 0.037,-0.132 0.025,-0.041 0.058,-0.073 0.099,-0.097 l 0.665,-0.397 c 0.05,-0.026 0.114,-0.039 0.19,-0.039 z m 1.943,3.128 c -0.247,0 -0.459,-0.066 -0.636,-0.198 -0.178,-0.132 -0.312,-0.318 -0.403,-0.557 -0.091,-0.239 -0.136,-0.516 -0.136,-0.831 0,-0.314 0.045,-0.591 0.136,-0.83 0.091,-0.239 0.226,-0.425 0.403,-0.557 0.177,-0.132 0.39,-0.198 0.636,-0.198 0.247,0 0.459,0.066 0.637,0.198 0.178,0.132 0.312,0.318 0.403,0.557 0.091,0.239 0.137,0.516 0.137,0.83 0,0.314 -0.045,0.591 -0.137,0.831 -0.091,0.239 -0.225,0.425 -0.403,0.557 -0.178,0.132 -0.39,0.198 -0.637,0.198 z m 0,-0.529 c 0.188,0 0.336,-0.09 0.443,-0.269 0.107,-0.179 0.161,-0.442 0.161,-0.789 0,-0.346 -0.054,-0.609 -0.161,-0.789 -0.107,-0.179 -0.255,-0.269 -0.443,-0.269 -0.188,0 -0.335,0.09 -0.443,0.269 -0.107,0.179 -0.161,0.442 -0.161,0.789 0,0.347 0.054,0.609 0.161,0.789 0.107,0.18 0.255,0.269 0.443,0.269 z m 2.366,-2.599 c 0.073,0 0.135,0.026 0.185,0.077 0.05,0.051 0.075,0.115 0.075,0.192 v 2.546 c 0,0.076 -0.028,0.14 -0.084,0.192 -0.056,0.052 -0.125,0.077 -0.207,0.077 -0.082,0 -0.15,-0.026 -0.203,-0.077 -0.053,-0.051 -0.079,-0.115 -0.079,-0.192 V 64.15 l -0.273,0.167 c -0.044,0.026 -0.091,0.04 -0.141,0.04 -0.073,0 -0.136,-0.028 -0.187,-0.084 -0.052,-0.056 -0.077,-0.117 -0.077,-0.185 0,-0.047 0.012,-0.091 0.037,-0.132 0.025,-0.041 0.058,-0.073 0.099,-0.097 l 0.665,-0.397 c 0.05,-0.026 0.113,-0.039 0.19,-0.039 z m 1.942,3.128 c -0.247,0 -0.459,-0.066 -0.636,-0.198 -0.178,-0.132 -0.312,-0.318 -0.403,-0.557 -0.091,-0.239 -0.136,-0.516 -0.136,-0.831 0,-0.314 0.045,-0.591 0.136,-0.83 0.091,-0.239 0.226,-0.425 0.403,-0.557 0.177,-0.132 0.39,-0.198 0.636,-0.198 0.247,0 0.459,0.066 0.637,0.198 0.178,0.132 0.312,0.318 0.403,0.557 0.091,0.239 0.137,0.516 0.137,0.83 0,0.314 -0.045,0.591 -0.137,0.831 -0.091,0.239 -0.225,0.425 -0.403,0.557 -0.178,0.132 -0.39,0.198 -0.637,0.198 z m 0,-0.529 c 0.188,0 0.336,-0.09 0.443,-0.269 0.107,-0.179 0.161,-0.442 0.161,-0.789 0,-0.346 -0.053,-0.609 -0.161,-0.789 -0.107,-0.179 -0.255,-0.269 -0.443,-0.269 -0.188,0 -0.335,0.09 -0.443,0.269 -0.107,0.179 -0.161,0.442 -0.161,0.789 0,0.347 0.053,0.609 0.161,0.789 0.108,0.18 0.255,0.269 0.443,0.269 z m 2.366,-2.599 c 0.073,0 0.135,0.026 0.185,0.077 0.05,0.051 0.075,0.115 0.075,0.192 v 0.174 l -0.573,0.992 V 64.15 l -0.273,0.167 c -0.044,0.026 -0.091,0.04 -0.141,0.04 -0.073,0 -0.136,-0.028 -0.187,-0.084 -0.052,-0.056 -0.077,-0.117 -0.077,-0.185 0,-0.047 0.012,-0.091 0.037,-0.132 0.025,-0.041 0.058,-0.073 0.099,-0.097 l 0.665,-0.397 c 0.051,-0.026 0.114,-0.039 0.19,-0.039 z m -13.433,4.08 c 0.062,-0.079 0.131,-0.148 0.21,-0.206 0.177,-0.132 0.39,-0.199 0.636,-0.199 0.247,0 0.459,0.066 0.637,0.199 0.178,0.132 0.312,0.318 0.403,0.557 0.032,0.084 0.059,0.173 0.079,0.267 h -0.581 c -0.025,-0.086 -0.056,-0.161 -0.095,-0.226 -0.107,-0.179 -0.255,-0.269 -0.443,-0.269 -0.188,0 -0.335,0.09 -0.443,0.269 -0.03,0.05 -0.056,0.108 -0.078,0.172 z m 3.213,-0.361 c 0.073,0 0.135,0.025 0.185,0.077 0.05,0.051 0.075,0.115 0.075,0.192 v 0.71 h -0.573 v -0.252 l -0.273,0.167 c -0.044,0.026 -0.091,0.04 -0.141,0.04 -0.074,0 -0.136,-0.028 -0.187,-0.084 -0.052,-0.056 -0.077,-0.117 -0.077,-0.185 0,-0.047 0.012,-0.091 0.037,-0.132 0.025,-0.041 0.058,-0.073 0.099,-0.097 l 0.665,-0.396 c 0.05,-0.027 0.113,-0.04 0.19,-0.04 z m 0.823,0.979 c 0.021,-0.094 0.047,-0.183 0.079,-0.267 0.091,-0.24 0.226,-0.425 0.403,-0.557 0.177,-0.132 0.39,-0.199 0.636,-0.199 0.247,0 0.459,0.066 0.637,0.199 0.178,0.132 0.312,0.318 0.403,0.557 0.032,0.083 0.058,0.172 0.079,0.264 H 76.66 c -0.025,-0.085 -0.056,-0.159 -0.094,-0.222 -0.107,-0.179 -0.255,-0.269 -0.443,-0.269 -0.188,0 -0.335,0.09 -0.443,0.269 -0.038,0.063 -0.069,0.137 -0.094,0.222 h -0.352 v 0.003 z m 3.485,-0.979 c 0.073,0 0.135,0.025 0.185,0.077 0.05,0.051 0.075,0.115 0.075,0.192 v 0.707 h -0.573 v -0.249 l -0.273,0.167 c -0.044,0.026 -0.091,0.04 -0.141,0.04 -0.073,0 -0.136,-0.028 -0.187,-0.084 -0.052,-0.056 -0.077,-0.117 -0.077,-0.185 0,-0.047 0.012,-0.091 0.037,-0.132 0.025,-0.041 0.058,-0.073 0.099,-0.097 L 78.3,67.182 c 0.051,-0.027 0.114,-0.04 0.19,-0.04 z m 0.824,0.976 c 0.021,-0.092 0.047,-0.181 0.078,-0.264 0.091,-0.24 0.226,-0.425 0.403,-0.557 0.177,-0.132 0.39,-0.199 0.636,-0.199 0.247,0 0.459,0.066 0.637,0.199 0.178,0.132 0.312,0.318 0.403,0.557 0.032,0.083 0.058,0.172 0.079,0.264 h -0.58 c -0.025,-0.085 -0.056,-0.159 -0.094,-0.222 -0.107,-0.179 -0.255,-0.269 -0.443,-0.269 -0.188,0 -0.335,0.09 -0.443,0.269 -0.038,0.063 -0.069,0.137 -0.094,0.222 z m 2.962,-0.12 -0.063,0.039 c -0.044,0.026 -0.091,0.04 -0.141,0.04 -0.073,0 -0.136,-0.028 -0.187,-0.084 -0.052,-0.056 -0.077,-0.117 -0.077,-0.185 0,-0.047 0.012,-0.091 0.037,-0.132 0.025,-0.041 0.058,-0.073 0.099,-0.097 l 0.665,-0.396 c 0.043,-0.023 0.097,-0.036 0.16,-0.039 z"
       id="path14"
       inkscape:connector-curvature="0" /></g></svg>