<?xml version="1.0" encoding="utf-8"?>
<!-- Generator: Adobe Illustrator 17.0.0, SVG Export Plug-In . SVG Version: 6.00 Build 0)  -->
<!DOCTYPE svg PUBLIC "-//W3C//DTD SVG 1.1//EN" "http://www.w3.org/Graphics/SVG/1.1/DTD/svg11.dtd">
<svg version="1.1" id="Layer_1" xmlns="http://www.w3.org/2000/svg" xmlns:xlink="http://www.w3.org/1999/xlink" x="0px" y="0px"
	 width="258px" height="321px" viewBox="0 0 258 321" enable-background="new 0 0 258 321" xml:space="preserve">
<path fill="#FFFFFF" d="M51.438,44.158c0-4.76,3.858-8.618,8.618-8.618h129.269l43.09,43.09v198.213c0,4.76-3.858,8.618-8.618,8.618
	H60.057c-4.76,0-8.618-3.858-8.618-8.618L51.438,44.158L51.438,44.158z"/>
<g>
	<path fill="#D5DCED" d="M150.545,268.225H51.438v-86.18h99.106c11.899,0,21.545,9.646,21.545,21.545v43.09
		C172.09,258.578,162.444,268.225,150.545,268.225z"/>
	<path fill="#D5DCED" d="M189.326,35.54v34.472c0,4.759,3.859,8.618,8.618,8.618h34.472L189.326,35.54z"/>
</g>
<g>
	<path fill="#73D0F4" d="M150.545,255.297H34.203c-4.76,0-8.618-3.858-8.618-8.618v-43.09c0-4.76,3.858-8.618,8.618-8.618h116.342
		c4.76,0,8.618,3.858,8.618,8.618v43.09C159.163,251.439,155.305,255.297,150.545,255.297z"/>
	<circle fill="#73D0F4" cx="141.927" cy="126.028" r="43.09"/>
</g>
<path fill="#3D6889" d="M235.272,75.773l-43.09-43.09c-0.757-0.757-1.785-1.183-2.856-1.183H60.057
	c-6.98,0-12.658,5.678-12.658,12.658v146.774H34.203c-6.98,0-12.658,5.678-12.658,12.658v43.09c0,6.98,5.678,12.658,12.658,12.658
	h13.196v17.505c0,6.98,5.678,12.658,12.658,12.658h163.741c6.98,0,12.658-5.678,12.658-12.658V78.629
	C236.455,77.558,236.03,76.531,235.272,75.773z M193.365,45.292l29.298,29.298h-24.72c-2.525,0-4.578-2.054-4.578-4.578
	L193.365,45.292L193.365,45.292z M29.624,246.68v-43.09c0-2.525,2.054-4.578,4.578-4.578h116.342c2.525,0,4.578,2.054,4.578,4.578
	v43.09c0,2.525-2.054,4.578-4.578,4.578H34.203C31.678,251.258,29.624,249.204,29.624,246.68z M223.797,281.421H60.057
	c-2.525,0-4.578-2.054-4.578-4.578v-17.505h95.067c6.98,0,12.658-5.678,12.658-12.658v-43.09c0-6.98-5.678-12.658-12.658-12.658
	H55.478V44.158c0-2.525,2.054-4.578,4.578-4.578h125.23v30.432c0,6.98,5.678,12.658,12.658,12.658h30.432v194.173
	C228.376,279.367,226.322,281.421,223.797,281.421z"/>
<path fill="#3D6889" d="M46.86,233.483h13.196c6.98,0,12.658-5.678,12.658-12.658c0-6.98-5.678-12.658-12.658-12.658H42.82
	c-2.231,0-4.04,1.809-4.04,4.04v25.854c0,2.231,1.809,4.04,4.04,4.04c2.231,0,4.04-1.809,4.04-4.04
	C46.86,238.062,46.86,233.483,46.86,233.483z M64.635,220.826c0,2.525-2.054,4.578-4.578,4.578H46.86v-9.157h13.196
	C62.581,216.247,64.635,218.301,64.635,220.826z"/>
<path fill="#3D6889" d="M81.601,242.101h12.927c9.356,0,16.967-7.612,16.967-16.967c0-9.356-7.612-16.967-16.967-16.967H81.601
	c-2.231,0-4.04,1.809-4.04,4.04v25.854C77.562,240.293,79.37,242.101,81.601,242.101z M85.641,216.247h8.887
	c4.9,0,8.887,3.987,8.887,8.887c0,4.9-3.987,8.887-8.887,8.887h-8.887V216.247z"/>
<path fill="#3D6889" d="M120.382,242.101c2.231,0,4.04-1.809,4.04-4.04v-8.887h8.887c2.231,0,4.04-1.809,4.04-4.04
	c0-2.231-1.809-4.04-4.04-4.04h-8.887v-4.848h17.505c2.231,0,4.04-1.809,4.04-4.04c0-2.231-1.809-4.04-4.04-4.04h-21.545
	c-2.231,0-4.04,1.809-4.04,4.04v25.854C116.342,240.293,118.151,242.101,120.382,242.101z"/>
<path fill="#3D6889" d="M141.927,78.899c-25.987,0-47.129,21.142-47.129,47.129s21.142,47.129,47.129,47.129
	s47.129-21.142,47.129-47.129S167.914,78.899,141.927,78.899z M141.927,165.078c-21.532,0-39.05-17.518-39.05-39.05
	s17.518-39.05,39.05-39.05s39.05,17.518,39.05,39.05S163.46,165.078,141.927,165.078z"/>
<path fill="#3D6889" d="M141.97,108.523c2.231,0,4.04-1.809,4.04-4.04c0-2.231-1.809-4.04-4.04-4.04h-0.043
	c-2.231,0-4.018,1.809-4.018,4.04C137.909,106.714,139.739,108.523,141.97,108.523z"/>
<path fill="#3D6889" d="M146.236,121.45c2.231,0,4.04-1.809,4.04-4.04s-1.809-4.04-4.04-4.04h-8.618c-2.231,0-4.04,1.809-4.04,4.04
	s1.809,4.04,4.04,4.04h0.269v22.084h-0.269c-2.231,0-4.04,1.809-4.04,4.04s1.809,4.04,4.04,4.04h8.618c2.231,0,4.04-1.809,4.04-4.04
	s-1.809-4.04-4.04-4.04h-0.269V121.45H146.236z"/>
</svg>
