<?xml version="1.0" encoding="UTF-8" standalone="no"?>
<!-- Generator: Adobe Illustrator 19.0.0, SVG Export Plug-In . SVG Version: 6.00 Build 0)  -->

<svg
   xmlns:dc="http://purl.org/dc/elements/1.1/"
   xmlns:cc="http://creativecommons.org/ns#"
   xmlns:rdf="http://www.w3.org/1999/02/22-rdf-syntax-ns#"
   xmlns:svg="http://www.w3.org/2000/svg"
   xmlns="http://www.w3.org/2000/svg"
   xmlns:sodipodi="http://sodipodi.sourceforge.net/DTD/sodipodi-0.dtd"
   xmlns:inkscape="http://www.inkscape.org/namespaces/inkscape"
   version="1.1"
   id="Layer_1"
   x="0px"
   y="0px"
   viewBox="0 0 512 512"
   style="enable-background:new 0 0 512 512;"
   xml:space="preserve"
   sodipodi:docname="presentation.svg"
   inkscape:version="0.92.0 r15299"><metadata
     id="metadata57"><rdf:RDF><cc:Work
         rdf:about=""><dc:format>image/svg+xml</dc:format><dc:type
           rdf:resource="http://purl.org/dc/dcmitype/StillImage" /></cc:Work></rdf:RDF></metadata><defs
     id="defs55" /><sodipodi:namedview
     pagecolor="#ffffff"
     bordercolor="#666666"
     borderopacity="1"
     objecttolerance="10"
     gridtolerance="10"
     guidetolerance="10"
     inkscape:pageopacity="0"
     inkscape:pageshadow="2"
     inkscape:window-width="1212"
     inkscape:window-height="703"
     id="namedview53"
     showgrid="false"
     inkscape:zoom="0.4609375"
     inkscape:cx="256"
     inkscape:cy="256"
     inkscape:window-x="0"
     inkscape:window-y="0"
     inkscape:window-maximized="0"
     inkscape:current-layer="g20" /><polygon
     style="fill:#445a91;fill-opacity:1"
     points="389.68,502.08 261.36,393.52 132.96,502.08 112.32,477.68 261.36,351.6 410.32,477.68 "
     id="polygon2" /><rect
     x="21.36"
     y="30.72"
     style="fill:#e7e5ff;fill-opacity:1"
     width="469.36"
     height="341.84"
     id="rect4" /><g
     id="g12"
     style="fill:#445a91;fill-opacity:1"><rect
       y="9.92"
       style="fill:#445a91;fill-opacity:1"
       width="512"
       height="21.36"
       id="rect6" /><rect
       y="372.56"
       style="fill:#445a91;fill-opacity:1"
       width="512"
       height="21.36"
       id="rect8" /><rect
       x="165.36"
       y="452.56"
       style="fill:#445a91;fill-opacity:1"
       width="192"
       height="10.64"
       id="rect10" /></g><g
     id="g20"><path
       style="fill:#90a1cf;fill-opacity:1"
       d="M99.12,164l9.92,38.24c2.16,8.4,4.16,16.16,5.6,23.92h0.48c1.68-7.6,4.16-15.68,6.64-23.76   l12.32-38.4h11.52l11.68,37.6c2.8,9.04,4.96,16.96,6.72,24.56h0.48c1.2-7.6,3.28-15.52,5.76-24.4L180.96,164h13.52l-24.24,75.2   h-12.4l-11.52-35.92c-2.64-8.4-4.8-15.84-6.72-24.72h-0.4c-1.84,9.04-4.16,16.8-6.8,24.88l-12.16,35.76h-12.4L85.12,164L99.12,164   L99.12,164z"
       id="path14" /><path
       style="fill:#90a1cf;fill-opacity:1"
       d="M215.36,164l9.92,38.24c2.16,8.4,4.16,16.16,5.6,23.92h0.48c1.68-7.6,4.16-15.68,6.64-23.76   l12.32-38.4h11.52l11.68,37.6c2.8,9.04,4.96,16.96,6.72,24.56h0.48c1.2-7.6,3.28-15.52,5.76-24.4L297.2,164h13.52l-24.24,75.2   h-12.4l-11.52-35.92c-2.64-8.4-4.8-15.84-6.72-24.72h-0.32c-1.84,9.04-4.16,16.8-6.8,24.88l-12.16,35.76h-12.4L201.44,164   L215.36,164L215.36,164z"
       id="path16" /><path
       style="fill:#90a1cf;fill-opacity:1"
       d="M331.6,164l9.92,38.24c2.16,8.4,4.16,16.16,5.6,23.92h0.48c1.68-7.6,4.16-15.68,6.64-23.76   l12.32-38.4h11.52l11.68,37.6c2.8,9.04,4.96,16.96,6.72,24.56h0.48c1.2-7.6,3.28-15.52,5.76-24.4L413.44,164h13.52l-24.24,75.2   h-12.4l-11.52-35.92c-2.64-8.4-4.8-15.84-6.72-24.72h-0.32c-1.84,9.04-4.16,16.8-6.8,24.88L352.8,239.2h-12.4L317.68,164L331.6,164   L331.6,164z"
       id="path18" /></g><g
     id="g22" /><g
     id="g24" /><g
     id="g26" /><g
     id="g28" /><g
     id="g30" /><g
     id="g32" /><g
     id="g34" /><g
     id="g36" /><g
     id="g38" /><g
     id="g40" /><g
     id="g42" /><g
     id="g44" /><g
     id="g46" /><g
     id="g48" /><g
     id="g50" /></svg>