<?xml version="1.0" encoding="utf-8"?>
<!-- Generator: Adobe Illustrator 17.0.0, SVG Export Plug-In . SVG Version: 6.00 Build 0)  -->
<!DOCTYPE svg PUBLIC "-//W3C//DTD SVG 1.1//EN" "http://www.w3.org/Graphics/SVG/1.1/DTD/svg11.dtd">
<svg version="1.1" id="Capa_1" xmlns="http://www.w3.org/2000/svg" xmlns:xlink="http://www.w3.org/1999/xlink" x="0px" y="0px"
	 width="258px" height="321px" viewBox="0 0 258 321" enable-background="new 0 0 258 321" xml:space="preserve">
<rect x="8.5" y="153.063" fill="#FFFFFF" width="177.575" height="92.601"/>
<ellipse fill="#FFFFFF" cx="47.177" cy="102.146" rx="40.323" ry="35.878"/>
<ellipse fill="#FFFFFF" cx="141.425" cy="102.146" rx="40.323" ry="35.878"/>
<g>
	<g>
		<path fill="none" d="M141.427,135.91c18.618,0,33.764-15.147,33.764-33.765c0-18.618-15.146-33.764-33.764-33.764
			c-18.619,0-33.766,15.146-33.766,33.764C107.66,120.764,122.807,135.91,141.427,135.91z"/>
		<path fill="none" d="M77.577,140.707h34.66c-8.24-6.252-14.414-15.081-17.33-25.275C91.99,125.627,85.817,134.455,77.577,140.707z
			"/>
		<path fill="none" d="M48.389,135.91c18.618,0,33.764-15.147,33.764-33.765c0-18.618-15.146-33.764-33.764-33.764
			s-33.765,15.146-33.765,33.764C14.624,120.764,29.771,135.91,48.389,135.91z"/>
		<path fill="none" d="M14.624,245.663h171.451v-15.291v-59.75V155.33H14.624V245.663z"/>
		<rect x="57.356" y="192.293" fill="#73D0F4" width="35.899" height="22.297"/>
		<polygon fill="#73D0F4" points="200.699,225.917 243.376,247.932 243.376,153.063 200.699,175.079 		"/>
		<path fill="#3D6889" d="M50.044,229.214h50.523c4.038,0,7.312-3.273,7.312-7.312v-36.921c0-4.038-3.274-7.312-7.312-7.312H50.044
			c-4.038,0-7.312,3.274-7.312,7.312v36.921C42.733,225.941,46.006,229.214,50.044,229.214z M57.356,192.293h35.899v22.297H57.356
			V192.293z"/>
		<path fill="#3D6889" d="M254.493,134.821c-2.178-1.328-4.891-1.424-7.156-0.255l-46.638,24.058v-10.605
			c0-4.039-3.274-7.312-7.312-7.312h-22.772c11.655-8.844,19.2-22.837,19.2-38.562c0-26.681-21.707-48.388-48.388-48.388
			c-22.074,0-40.73,14.861-46.519,35.1c-5.791-20.239-24.445-35.099-46.518-35.099C21.707,53.757,0,75.464,0,102.145
			c0,15.726,7.545,29.718,19.2,38.562H7.312c-4.038,0-7.312,3.273-7.312,7.312v104.956c0,4.038,3.274,7.312,7.312,7.312h186.075
			c4.038,0,7.312-3.274,7.312-7.312v-10.603l46.638,24.057c1.054,0.544,2.203,0.814,3.351,0.814c1.321,0,2.64-0.358,3.805-1.068
			c2.179-1.327,3.507-3.694,3.507-6.244V141.064C258,138.513,256.672,136.148,254.493,134.821z M141.427,68.381
			c18.618,0,33.764,15.146,33.764,33.764c0,18.619-15.146,33.765-33.764,33.765c-18.619,0-33.766-15.147-33.766-33.765
			C107.66,83.527,122.807,68.381,141.427,68.381z M112.237,140.707h-34.66c8.241-6.252,14.413-15.081,17.33-25.275
			C97.823,125.627,103.997,134.455,112.237,140.707z M14.624,102.145c0-18.618,15.147-33.764,33.765-33.764
			s33.764,15.146,33.764,33.764c0,18.619-15.146,33.765-33.764,33.765S14.624,120.764,14.624,102.145z M186.075,170.623v59.75
			v15.291H14.624v-90.332h171.451V170.623z M243.376,247.932l-42.678-22.015v-50.838l42.678-22.015L243.376,247.932L243.376,247.932
			z"/>
	</g>
</g>
</svg>
