<?xml version="1.0" encoding="UTF-8" standalone="no"?>
<!-- Generator: Adobe Illustrator 19.0.0, SVG Export Plug-In . SVG Version: 6.00 Build 0)  -->

<svg
   xmlns:dc="http://purl.org/dc/elements/1.1/"
   xmlns:cc="http://creativecommons.org/ns#"
   xmlns:rdf="http://www.w3.org/1999/02/22-rdf-syntax-ns#"
   xmlns:svg="http://www.w3.org/2000/svg"
   xmlns="http://www.w3.org/2000/svg"
   xmlns:sodipodi="http://sodipodi.sourceforge.net/DTD/sodipodi-0.dtd"
   xmlns:inkscape="http://www.inkscape.org/namespaces/inkscape"
   version="1.1"
   id="Layer_1"
   x="0px"
   y="0px"
   viewBox="0 0 512 512"
   style="enable-background:new 0 0 512 512;"
   xml:space="preserve"
   sodipodi:docname="video-call.svg"
   inkscape:version="0.92.0 r15299"><metadata
     id="metadata69"><rdf:RDF><cc:Work
         rdf:about=""><dc:format>image/svg+xml</dc:format><dc:type
           rdf:resource="http://purl.org/dc/dcmitype/StillImage" /></cc:Work></rdf:RDF></metadata><defs
     id="defs67" /><sodipodi:namedview
     pagecolor="#ffffff"
     bordercolor="#666666"
     borderopacity="1"
     objecttolerance="10"
     gridtolerance="10"
     guidetolerance="10"
     inkscape:pageopacity="0"
     inkscape:pageshadow="2"
     inkscape:window-width="922"
     inkscape:window-height="596"
     id="namedview65"
     showgrid="false"
     inkscape:zoom="0.4609375"
     inkscape:cx="234.87006"
     inkscape:cy="256"
     inkscape:window-x="0"
     inkscape:window-y="0"
     inkscape:window-maximized="0"
     inkscape:current-layer="Layer_1" /><g
     id="g6"><rect
       x="240.325"
       y="380.339"
       style="fill:#4B92B9;"
       width="31.347"
       height="45.453"
       id="rect2" /><rect
       x="219.427"
       y="319.736"
       style="fill:#4B92B9;"
       width="73.142"
       height="60.603"
       id="rect4" /></g><circle
     style="fill:#e1ebff;fill-opacity:1"
     cx="255.998"
     cy="175.019"
     r="167.182"
     id="circle8" /><g
     id="g14"><path
       style="fill:#4B92B9;"
       d="M423.182,175.024L423.182,175.024c-13.949,0-25.789-10.107-28.117-23.861   c-4.871-28.791-18.548-55.276-39.707-76.271C328.735,48.478,293.491,33.964,256,33.964h-1.108   C185.849,34.497,128.3,85.228,116.965,151.199c-2.357,13.718-14.228,23.758-28.147,23.752l0,0v-0.01   C88.86,83.514,163.256,8.553,254.683,7.843C347.626,7.131,423.182,82.259,423.182,175.024z"
       id="path10" /><circle
       style="fill:#4B92B9;"
       cx="255.998"
       cy="175.019"
       r="99.264"
       id="circle12" /></g><circle
     style="fill:#79CAE8;"
     cx="255.998"
     cy="175.019"
     r="62.693"
     id="circle16" /><circle
     style="fill:#FFFFFF;"
     cx="255.998"
     cy="175.019"
     r="31.347"
     id="circle18" /><path
     style="fill:#79CAE8;"
     d="M303.02,478.041h-94.04v-31.347c0-11.542,9.356-20.898,20.898-20.898h52.244  c11.542,0,20.898,9.356,20.898,20.898V478.041z"
     id="path20" /><path
     style="fill:#4B92B9;"
     d="M342.203,504.163H169.797c-7.214,0-13.061-5.847-13.061-13.061l0,0  c0-7.214,5.847-13.061,13.061-13.061h172.406c7.214,0,13.061,5.847,13.061,13.061l0,0  C355.264,498.316,349.417,504.163,342.203,504.163z"
     id="path22" /><path
     d="M256,0C159.517,0,81.02,78.476,80.982,174.951h-0.001v7.834h0.182c3.412,77.738,57.767,142.465,130.429,161.539v43.858  h20.898v29.779h-2.612c-15.845,0-28.734,12.891-28.734,28.734v10.449h15.673v-10.449c0-7.202,5.859-13.061,13.061-13.061h52.244  c7.202,0,13.061,5.859,13.061,13.061v10.449h15.673v-10.449c0-15.844-12.891-28.734-28.734-28.734h-2.612v-29.779h20.898v-43.858  c75.07-19.706,130.611-88.138,130.611-169.304C431.019,78.514,352.506,0,256,0z M256,15.673  c84.668,0,154.114,66.381,159.054,149.831c-6.301-2.705-11.046-8.464-12.261-15.648c-5.18-30.612-19.673-58.457-41.915-80.526  C332.8,41.471,295.553,26.127,256.001,26.127h-1.168c-35,0.271-68.97,13.044-95.651,35.971  c-26.372,22.662-44.108,53.833-49.939,87.774c-1.229,7.152-5.984,12.882-12.291,15.571C101.921,82.022,171.353,15.673,256,15.673z   M263.837,417.96h-15.673v-29.779h15.673V417.96z M284.734,372.508h-57.469v-24.842c9.353,1.552,18.949,2.372,28.734,2.372  c9.785,0,19.382-0.82,28.734-2.372V372.508z M256,334.364c-85.554,0-155.566-67.777-159.188-152.456  c14.14-3.158,25.327-14.547,27.876-29.382c5.216-30.357,21.093-58.249,44.708-78.54c23.874-20.514,54.258-31.944,85.497-32.186H256  c35.389,0,68.716,13.728,93.839,38.655c19.903,19.748,32.87,44.65,37.501,72.015c2.519,14.895,13.693,26.333,27.845,29.507  C411.529,266.623,341.531,334.364,256,334.364z"
     id="path24"
     style="fill:#676e82;fill-opacity:1" /><path
     d="M256,67.923c-59.056,0-107.101,48.045-107.101,107.101S196.944,282.125,256,282.125s107.101-48.045,107.101-107.101  S315.056,67.923,256,67.923z M256,266.451c-50.414,0-91.428-41.014-91.428-91.428S205.586,83.596,256,83.596  s91.428,41.014,91.428,91.428S306.414,266.451,256,266.451z"
     id="path26" /><path
     d="M256,104.494c-38.891,0-70.53,31.639-70.53,70.53s31.639,70.53,70.53,70.53s70.53-31.639,70.53-70.53  S294.891,104.494,256,104.494z M256,229.88c-30.248,0-54.857-24.609-54.857-54.857s24.608-54.857,54.857-54.857  c30.247,0,54.857,24.609,54.857,54.857S286.248,229.88,256,229.88z"
     id="path28" /><path
     d="M256,135.841c-21.606,0-39.183,17.577-39.183,39.183s17.577,39.183,39.183,39.183s39.183-17.577,39.183-39.183  S277.606,135.841,256,135.841z M256,198.534c-12.964,0-23.51-10.547-23.51-23.51s10.546-23.51,23.51-23.51  c12.963,0,23.51,10.547,23.51,23.51C279.51,187.987,268.964,198.534,256,198.534z"
     id="path30"
     style="fill:#55575b;fill-opacity:1" /><path
     d="M342.203,470.205H169.797c-11.523,0-20.898,9.375-20.898,20.898S158.274,512,169.797,512h172.406  c11.523,0,20.898-9.375,20.898-20.898S353.727,470.205,342.203,470.205z M342.203,496.327H169.797c-2.881,0-5.224-2.344-5.224-5.224  s2.344-5.224,5.224-5.224h172.406c2.881,0,5.224,2.344,5.224,5.224S345.084,496.327,342.203,496.327z"
     id="path32" /><g
     id="g34" /><g
     id="g36" /><g
     id="g38" /><g
     id="g40" /><g
     id="g42" /><g
     id="g44" /><g
     id="g46" /><g
     id="g48" /><g
     id="g50" /><g
     id="g52" /><g
     id="g54" /><g
     id="g56" /><g
     id="g58" /><g
     id="g60" /><g
     id="g62" /></svg>